<svg xmlns="http://www.w3.org/2000/svg" xmlns:xlink="http://www.w3.org/1999/xlink" width="420.021" height="149.924" viewBox="0 0 315.016 112.443"><clipPath id="a"><path transform="matrix(.48589 0 0 -.48589 -2.909 114.994)" d="M0 0h652v241H0z"/></clipPath><g clip-path="url(#a)"><clipPath id="b"><path transform="matrix(.48589 0 0 -.48589 -2.909 114.994)" d="M0 .04h651.84V241H0z"/></clipPath><g clip-path="url(#b)"><path d="M-2.909-2.105h316.723v117.08H-2.91z" fill="#fff"/></g><path d="M-2.909-2.105h316.8v117.099h-316.8z" fill="#fff"/><path d="M71.358 43.826c0-19.194 35.244-34.753 78.719-34.753 43.475 0 78.718 15.56 78.718 34.753 0 19.193-35.243 34.753-78.718 34.753s-78.719-15.56-78.719-34.753z" fill="#d4e3f1" fill-opacity=".902" fill-rule="evenodd"/><path stroke-width=".508" stroke-miterlimit="8" fill="none" stroke="#000" d="M71.358 43.826c0-19.194 35.244-34.753 78.719-34.753 43.475 0 78.718 15.56 78.718 34.753 0 19.193-35.243 34.753-78.718 34.753s-78.719-15.56-78.719-34.753z"/><path d="M110.421 64.664c0-6.108 6.366-11.06 14.217-11.06 7.852 0 14.218 4.952 14.218 11.06 0 6.109-6.366 11.06-14.218 11.06-7.851 0-14.217-4.951-14.217-11.06z" fill="#a5b9e0" fill-opacity=".851" fill-rule="evenodd"/><path d="M132.874 44.278c0-19.17 35.244-34.71 78.719-34.71 43.475 0 78.718 15.54 78.718 34.71s-35.243 34.71-78.718 34.71-78.719-15.54-78.719-34.71z" fill="#ffffe5" fill-opacity=".702" fill-rule="evenodd"/><path stroke-width=".508" stroke-miterlimit="8" fill="none" stroke="#000" d="M132.874 44.278c0-19.17 35.244-34.71 78.719-34.71 43.475 0 78.718 15.54 78.718 34.71s-35.243 34.71-78.718 34.71-78.719-15.54-78.719-34.71z"/><path d="M114.954 50.823c0-.702.57-1.272 1.272-1.272h15.965c.702 0 1.272.57 1.272 1.272v5.085c0 .703-.57 1.272-1.272 1.272h-15.965c-.703 0-1.272-.57-1.272-1.272z" fill="#4472c4" fill-rule="evenodd"/><symbol id="c"><path d="M.598.334c0-.052-.006-.099-.02-.14A.253.253 0 0 0 .425.023.355.355 0 0 0 .295 0a.395.395 0 0 0-.13.019.225.225 0 0 0-.146.16A.512.512 0 0 0 .02.46a.254.254 0 0 0 .153.17.353.353 0 0 0 .132.023c.048 0 .09-.006.127-.019A.22.22 0 0 0 .523.577a.251.251 0 0 0 .056-.1A.472.472 0 0 0 .6.334M.462.328a.479.479 0 0 1-.007.09.19.19 0 0 1-.027.07.123.123 0 0 1-.05.045A.17.17 0 0 1 .3.549.158.158 0 0 1 .22.53a.143.143 0 0 1-.05-.048.2.2 0 0 1-.028-.07.507.507 0 0 1 0-.177.2.2 0 0 1 .026-.07.123.123 0 0 1 .05-.045.18.18 0 0 1 .078-.015c.032 0 .058.006.08.018a.142.142 0 0 1 .05.047c.014.02.023.044.028.07a.428.428 0 0 1 .008.087z"/></symbol><symbol id="d"><path d="M.469.02A.02.02 0 0 0 .467.01L.457.004a.592.592 0 0 0-.112 0 .023.023 0 0 0-.01.007.043.043 0 0 0-.004.01L.274.163a.595.595 0 0 1-.02.042.126.126 0 0 1-.022.03.076.076 0 0 1-.027.02.095.095 0 0 1-.037.006h-.04v-.24A.013.013 0 0 0 .125.01a.02.02 0 0 0-.01-.006.271.271 0 0 0-.102 0 .02.02 0 0 0-.01.007A.014.014 0 0 0 0 .02v.573C0 .61.004.62.01.625a.04.04 0 0 0 .028.01h.164A.702.702 0 0 0 .272.63.263.263 0 0 0 .34.613.159.159 0 0 0 .392.578a.139.139 0 0 0 .033-.05A.182.182 0 0 0 .436.46.193.193 0 0 0 .428.403.145.145 0 0 0 .366.321.209.209 0 0 0 .313.297a.138.138 0 0 0 .05-.04.387.387 0 0 0 .04-.072L.457.06A.31.31 0 0 0 .469.02M.303.448C.303.47.3.487.29.501a.077.077 0 0 1-.046.03.305.305 0 0 1-.057.005H.128V.358h.066c.018 0 .034.003.048.007a.1.1 0 0 1 .034.018C.285.39.292.4.296.412a.097.097 0 0 1 .007.036z"/></symbol><use xlink:href="#c" transform="matrix(4.8589 0 0 -4.8589 121.392 54.857)" fill="#fff"/><use xlink:href="#d" transform="matrix(4.8589 0 0 -4.8589 124.816 54.816)" fill="#fff"/><symbol id="e"><path d="M.404.021c0-.002 0-.004-.002-.006C.402.013.4.01.396.01a.12.12 0 0 0-.056 0 .014.014 0 0 0-.006.005.012.012 0 0 0-.001.006V.08A.295.295 0 0 0 .26.02.163.163 0 0 0 .18 0a.17.17 0 0 0-.083.019.16.16 0 0 0-.055.05.23.23 0 0 0-.031.076.415.415 0 0 0 .002.193c.008.03.02.057.036.078a.16.16 0 0 0 .06.05.183.183 0 0 0 .081.017C.215.483.24.477.26.466a.243.243 0 0 0 .064-.05v.256c0 .002 0 .004.002.006a.011.011 0 0 0 .007.005.109.109 0 0 0 .032.004.112.112 0 0 0 .032-.004.01.01 0 0 0 .006-.005.01.01 0 0 0 .002-.006v-.65M.324.33A.308.308 0 0 1 .26.392a.108.108 0 0 1-.064.022.09.09 0 0 1-.052-.015A.115.115 0 0 1 .109.36a.194.194 0 0 1-.02-.054A.427.427 0 0 1 .088.18.196.196 0 0 1 .106.123.11.11 0 0 1 .14.083a.106.106 0 0 1 .114.004l.033.027a.43.43 0 0 1 .036.04v.177z"/></symbol><symbol id="f"><path d="M.44.246A.332.332 0 0 0 .424.147.216.216 0 0 0 .383.069a.191.191 0 0 0-.07-.05A.245.245 0 0 0 .214 0 .255.255 0 0 0 .12.016a.173.173 0 0 0-.067.047.199.199 0 0 0-.04.075.347.347 0 0 0-.013.1c0 .035.005.068.014.098a.192.192 0 0 0 .112.129c.028.012.06.018.098.018A.252.252 0 0 0 .318.467.172.172 0 0 0 .386.42a.199.199 0 0 0 .04-.075.333.333 0 0 0 .013-.099M.354.241a.32.32 0 0 1-.006.067.163.163 0 0 1-.022.056.106.106 0 0 1-.04.037.133.133 0 0 1-.065.015.138.138 0 0 1-.062-.013.112.112 0 0 1-.042-.036.162.162 0 0 1-.025-.055.346.346 0 0 1-.001-.137.17.17 0 0 1 .022-.056.116.116 0 0 1 .106-.051c.023 0 .044.004.06.013.018.008.032.02.043.035.011.016.02.034.025.055a.292.292 0 0 1 .007.07z"/></symbol><symbol id="g"><path d="M.416.61A.049.049 0 0 0 .411.585C.408.58.404.578.4.578H.336A.099.099 0 0 0 .36.538.174.174 0 0 0 .355.428.136.136 0 0 0 .32.377a.156.156 0 0 0-.054-.03.212.212 0 0 0-.12-.004.11.11 0 0 0-.038.018.06.06 0 0 1-.02-.046c0-.011.006-.02.016-.028A.078.078 0 0 1 .146.274L.261.27a.23.23 0 0 0 .06-.01A.143.143 0 0 0 .37.237.103.103 0 0 0 .41.15.13.13 0 0 0 .36.045.186.186 0 0 0 .293.012.384.384 0 0 0 .106.01a.193.193 0 0 0-.06.025A.095.095 0 0 0 0 .118a.125.125 0 0 0 .016.06.15.15 0 0 0 .02.026.264.264 0 0 0 .027.025.076.076 0 0 0-.047.07c0 .02.005.038.013.054s.018.03.03.042a.145.145 0 0 0-.024.04.154.154 0 0 0-.009.056.17.17 0 0 0 .013.067.143.143 0 0 0 .089.082.205.205 0 0 0 .069.01.263.263 0 0 0 .07-.007h.132C.405.643.41.64.412.634A.052.052 0 0 0 .416.61M.29.494c0 .03-.008.053-.025.07C.25.581.225.589.195.589a.1.1 0 0 1-.04-.007.083.083 0 0 1-.047-.054.126.126 0 0 1-.005-.037C.103.462.111.44.127.423a.094.094 0 0 1 .07-.025c.016 0 .03.002.041.007a.08.08 0 0 1 .046.053.115.115 0 0 1 .006.036M.33.146a.049.049 0 0 1-.023.043.115.115 0 0 1-.062.017L.13.21A.21.21 0 0 1 .089.166a.08.08 0 0 1-.008-.02.102.102 0 0 1-.002-.02C.08.105.09.089.111.078a.2.2 0 0 1 .09-.016c.025 0 .045.002.061.007.017.004.03.01.04.018.01.008.017.017.022.027.004.01.007.02.007.032z"/></symbol><use xlink:href="#e" transform="matrix(7.77424 0 0 -7.77424 119.455 63.27)"/><use xlink:href="#f" transform="matrix(7.77424 0 0 -7.77424 123.501 63.27)"/><use xlink:href="#g" transform="matrix(7.77424 0 0 -7.77424 127.492 64.584)"/><symbol id="h"><path d="M.418.456V.447L.415.44.415.435.265.018a.024.024 0 0 0-.006-.01A.02.02 0 0 0 .25.004a.253.253 0 0 0-.081 0 .023.023 0 0 0-.01.006.024.024 0 0 0-.005.009l-.15.417c0 .004-.002.007-.003.01A.28.28 0 0 1 0 .452v.004C0 .458 0 .46.002.462a.012.012 0 0 0 .006.005.313.313 0 0 0 .067 0A.014.014 0 0 0 .082.46.031.031 0 0 0 .086.454L.21.092.212.086l.002.006.122.362.004.007a.018.018 0 0 0 .007.005.19.19 0 0 0 .064 0C.414.467.416.465.417.463A.01.01 0 0 0 .418.456z"/></symbol><symbol id="i"><path d="M.404.26C.404.248.401.238.394.233A.032.032 0 0 0 .374.225H.085C.085.201.087.18.092.16A.127.127 0 0 1 .117.11.11.11 0 0 1 .16.077.176.176 0 0 1 .228.065a.286.286 0 0 1 .127.028A.048.048 0 0 0 .373.1.01.01 0 0 0 .378.097.01.01 0 0 0 .383.092.091.091 0 0 0 .384.048.015.015 0 0 0 .38.042.023.023 0 0 0 .377.036a.078.078 0 0 0-.016-.01A.437.437 0 0 0 .22 0a.274.274 0 0 0-.094.016.176.176 0 0 0-.11.12A.348.348 0 0 0 0 .239c0 .038.005.072.015.102.01.03.023.056.042.076.018.022.04.038.067.049A.216.216 0 0 0 .21.483.21.21 0 0 0 .299.466a.165.165 0 0 0 .094-.11.28.28 0 0 0 .011-.081V.26m-.08.024a.147.147 0 0 1-.03.1C.276.408.247.42.209.42a.113.113 0 0 1-.09-.041.136.136 0 0 1-.024-.044.179.179 0 0 1-.009-.05h.238z"/></symbol><symbol id="j"><path d="M.257.426a.279.279 0 0 0-.003-.03A.018.018 0 0 0 .25.39C.25.388.247.388.245.388c-.003 0-.006 0-.01.002a.082.082 0 0 1-.013.004.132.132 0 0 1-.015.004.088.088 0 0 1-.02.002.062.062 0 0 1-.023-.004.097.097 0 0 1-.025-.017A.66.66 0 0 1 .08.304V.015L.079.008A.017.017 0 0 0 .072.004.045.045 0 0 0 .06 0a.167.167 0 0 0-.052.003A.017.017 0 0 0 0 .008.015.015 0 0 0 0 .015v.44L.001.46c.001.002.003.004.006.005A.027.027 0 0 0 .02.469.133.133 0 0 0 .065.466.011.011 0 0 0 .071.46.01.01 0 0 0 .073.455V.39a.361.361 0 0 0 .033.043c.011.01.021.02.03.025.01.007.02.011.029.014a.106.106 0 0 0 .042.003A.108.108 0 0 0 .24.469.033.033 0 0 0 .25.464.013.013 0 0 0 .254.459L.255.454A.243.243 0 0 0 .256.426z"/></symbol><use xlink:href="#f" transform="matrix(7.77424 0 0 -7.77424 118.271 70.617)"/><use xlink:href="#h" transform="matrix(7.77424 0 0 -7.77424 122.155 70.568)"/><use xlink:href="#i" transform="matrix(7.77424 0 0 -7.77424 125.822 70.617)"/><use xlink:href="#j" transform="matrix(7.77424 0 0 -7.77424 129.936 70.568)"/><path d="M79.1 40.642c0-7.878 9.004-14.265 20.112-14.265 11.107 0 20.112 6.387 20.112 14.265 0 7.878-9.005 14.264-20.112 14.264-11.108 0-20.112-6.386-20.112-14.264z" fill="#a5b9e0" fill-opacity=".851" fill-rule="evenodd"/><symbol id="k"><path d="M.311.141a.137.137 0 0 0-.013-.06.12.12 0 0 0-.035-.044.16.16 0 0 0-.055-.028.248.248 0 0 0-.114-.005.274.274 0 0 0-.067.02.09.09 0 0 0-.017.012.028.028 0 0 0-.008.013A.093.093 0 0 0 0 .073.105.105 0 0 0 .003.1a.01.01 0 0 0 .004.005.011.011 0 0 0 .007.002C.017.106.022.104.029.1A.525.525 0 0 1 .092.07.167.167 0 0 1 .177.07c.011.003.02.007.03.013a.057.057 0 0 1 .018.022C.229.112.23.123.23.134a.05.05 0 0 1-.01.032.088.088 0 0 1-.024.022.196.196 0 0 1-.035.018A10.87 10.87 0 0 1 .08.24a.163.163 0 0 0-.036.026.12.12 0 0 0-.025.036.124.124 0 0 0-.01.05c0 .018.004.034.01.05.007.016.017.03.03.041.014.012.03.022.05.03A.21.21 0 0 0 .207.48.241.241 0 0 0 .262.463.081.081 0 0 0 .277.454.022.022 0 0 0 .284.447.049.049 0 0 0 .288.431V.405a.027.027 0 0 0-.003-.01.013.013 0 0 0-.004-.006.01.01 0 0 0-.005-.001C.273.387.269.389.263.392A.211.211 0 0 1 .21.415a.139.139 0 0 1-.076 0A.067.067 0 0 1 .108.403a.057.057 0 0 1-.015-.02.065.065 0 0 1-.005-.025c0-.013.003-.024.01-.032A.095.095 0 0 1 .123.302.214.214 0 0 1 .159.285 3.48 3.48 0 0 0 .24.25.151.151 0 0 0 .276.225.11.11 0 0 0 .311.141z"/></symbol><symbol id="l"><path d="M.36.021C.36.017.36.014.358.012a.027.027 0 0 0-.01-.004.102.102 0 0 0-.02-.002c-.01 0-.016 0-.021.002a.024.024 0 0 0-.011.004C.293.014.292.017.292.021v.044A.216.216 0 0 0 .227.017.169.169 0 0 0 .152 0 .202.202 0 0 0 .09.01.121.121 0 0 0 .01.077.142.142 0 0 0 0 .133C0 .159.005.18.015.198.025.216.04.232.06.244A.21.21 0 0 0 .128.27.42.42 0 0 0 .22.28h.06v.034a.17.17 0 0 1-.005.045.074.074 0 0 1-.048.052.183.183 0 0 1-.1 0A.264.264 0 0 1 .054.378.04.04 0 0 0 .038.372c-.003 0-.005 0-.007.002A.019.019 0 0 0 .025.38a.035.035 0 0 0-.003.01.096.096 0 0 0 0 .033.03.03 0 0 0 .01.013c.004.004.011.01.022.015a.295.295 0 0 0 .133.032.264.264 0 0 0 .081-.01A.12.12 0 0 0 .351.39a.25.25 0 0 0 .01-.073V.021m-.08.2H.21A.25.25 0 0 1 .155.217a.113.113 0 0 1-.04-.017A.068.068 0 0 1 .09.173.08.08 0 0 1 .083.138C.083.115.09.097.104.083a.087.087 0 0 1 .061-.02c.021 0 .04.005.059.016A.25.25 0 0 1 .28.13v.093z"/></symbol><symbol id="m"><path d="M.09.015C.09.013.09.01.088.008A.017.017 0 0 0 .082.004.045.045 0 0 0 .07 0a.167.167 0 0 0-.052.003.017.017 0 0 0-.007.004.015.015 0 0 0-.001.007v.44L.01.46a.014.014 0 0 0 .007.005.052.052 0 0 0 .012.003.162.162 0 0 0 .052-.003A.014.014 0 0 0 .088.46.011.011 0 0 0 .09.455v-.44M.1.603C.1.584.096.571.089.564.082.558.069.554.049.554.03.554.017.557.01.564.003.571 0 .584 0 .602c0 .019.004.032.01.039.008.006.021.01.04.01C.07.65.082.647.09.64.096.634.099.62.099.603z"/></symbol><use xlink:href="#k" transform="matrix(7.77424 0 0 -7.77424 92.963 36.916)"/><use xlink:href="#l" transform="matrix(7.77424 0 0 -7.77424 96.041 36.916)"/><use xlink:href="#m" transform="matrix(7.77424 0 0 -7.77424 99.902 36.866)"/><use xlink:href="#e" transform="matrix(7.77424 0 0 -7.77424 101.523 36.916)"/><symbol id="n"><path d="M.404.247A.387.387 0 0 0 .392.144.223.223 0 0 0 .355.066a.16.16 0 0 0-.06-.049.182.182 0 0 0-.153 0 .424.424 0 0 0-.07.058V.021L.068.015A.014.014 0 0 0 .063.01.113.113 0 0 0 .019.008.066.066 0 0 0 .007.01C.004.01.002.013.001.015A.015.015 0 0 0 0 .02v.653L.001.68a.014.014 0 0 0 .007.005.052.052 0 0 0 .013.002.162.162 0 0 0 .051-.002A.014.014 0 0 0 .08.68.012.012 0 0 0 .08.674V.41a.34.34 0 0 0 .037.033A.22.22 0 0 0 .19.48a.17.17 0 0 0 .038.004c.031 0 .059-.006.081-.02a.155.155 0 0 0 .055-.05.218.218 0 0 0 .032-.075.409.409 0 0 0 .01-.09M.318.237a.392.392 0 0 1-.005.065.18.18 0 0 1-.018.056.107.107 0 0 1-.033.04.087.087 0 0 1-.053.015.11.11 0 0 1-.061-.02.242.242 0 0 1-.033-.026.398.398 0 0 1-.035-.04V.152A.34.34 0 0 1 .144.09.109.109 0 0 1 .207.07a.09.09 0 0 1 .052.014.11.11 0 0 1 .034.039c.01.016.016.034.02.054.004.02.006.04.006.06z"/></symbol><symbol id="o"><path d="M.08.015.08.008A.017.017 0 0 0 .072.004.045.045 0 0 0 .06 0a.167.167 0 0 0-.052.003A.017.017 0 0 0 0 .008.015.015 0 0 0 0 .015v.652l.001.007A.014.014 0 0 0 .008.68.052.052 0 0 0 .02.682.162.162 0 0 0 .072.68.014.014 0 0 0 .08.674.012.012 0 0 0 .08.667V.015z"/></symbol><symbol id="p"><path d="M.347.088A.193.193 0 0 0 .344.063.029.029 0 0 0 .341.056a.045.045 0 0 0-.008-.01.128.128 0 0 0-.02-.014A.225.225 0 0 0 .196 0a.212.212 0 0 0-.084.016A.162.162 0 0 0 .05.06a.216.216 0 0 0-.037.074.365.365 0 0 0-.013.1C0 .28.005.317.016.348c.01.031.025.057.043.077.019.02.04.034.065.044A.221.221 0 0 0 .312.454.114.114 0 0 0 .33.439.05.05 0 0 0 .338.43.028.028 0 0 0 .342.422.059.059 0 0 0 .34.37C.337.365.334.363.33.363.325.363.319.365.312.37a.216.216 0 0 1-.06.035.13.13 0 0 1-.048.009.102.102 0 0 1-.09-.045.227.227 0 0 1-.03-.13.32.32 0 0 1 .008-.074.157.157 0 0 1 .024-.054A.1.1 0 0 1 .154.08.127.127 0 0 1 .206.07c.019 0 .035.003.049.009a.207.207 0 0 1 .062.038C.324.123.33.125.333.125A.01.01 0 0 0 .34.124.014.014 0 0 0 .343.117.12.12 0 0 0 .346.089z"/></symbol><symbol id="q"><path d="M.36.016.36.009A.014.014 0 0 0 .352.004.046.046 0 0 0 .34 0a.185.185 0 0 0-.043 0 .078.078 0 0 0-.014.002.034.034 0 0 0-.01.005.051.051 0 0 0-.006.008L.081.259V.015L.079.008A.017.017 0 0 0 .072.004.045.045 0 0 0 .06 0a.167.167 0 0 0-.052.003A.017.017 0 0 0 0 .008.015.015 0 0 0 0 .015v.652l.001.007A.014.014 0 0 0 .008.68.052.052 0 0 0 .02.682.162.162 0 0 0 .072.68.014.014 0 0 0 .08.674.012.012 0 0 0 .08.667V.27l.166.183A.037.037 0 0 0 .255.46.049.049 0 0 0 .28.468.175.175 0 0 0 .333.467C.337.466.34.464.341.462A.01.01 0 0 0 .343.455.023.023 0 0 0 .34.443.062.062 0 0 0 .33.43L.17.27.35.04A.076.076 0 0 0 .357.025.018.018 0 0 0 .36.015z"/></symbol><use xlink:href="#n" transform="matrix(7.77424 0 0 -7.77424 91.353 44.262)"/><use xlink:href="#o" transform="matrix(7.77424 0 0 -7.77424 95.423 44.213)"/><use xlink:href="#l" transform="matrix(7.77424 0 0 -7.77424 96.951 44.262)"/><use xlink:href="#p" transform="matrix(7.77424 0 0 -7.77424 100.647 44.262)"/><use xlink:href="#q" transform="matrix(7.77424 0 0 -7.77424 104.17 44.213)"/><use xlink:href="#e" transform="matrix(7.77424 0 0 -7.77424 93.384 51.492)"/><use xlink:href="#f" transform="matrix(7.77424 0 0 -7.77424 97.43 51.492)"/><use xlink:href="#g" transform="matrix(7.77424 0 0 -7.77424 101.42 52.806)"/><path d="M89.688 24.568c0-.703.57-1.272 1.271-1.272h15.966c.702 0 1.271.57 1.271 1.272v5.085c0 .702-.569 1.272-1.271 1.272H90.959c-.702 0-1.271-.57-1.271-1.272z" fill="#ed7d31" fill-rule="evenodd"/><path stroke-width=".508" stroke-miterlimit="8" fill="none" stroke="#ed7d31" d="M89.688 24.568c0-.703.57-1.272 1.271-1.272h15.966c.702 0 1.271.57 1.271 1.272v5.085c0 .702-.569 1.272-1.271 1.272H90.959c-.702 0-1.271-.57-1.271-1.272z"/><symbol id="r"><path d="M.575.05A.17.17 0 0 0 .582.024C.583.016.582.01.578.007.575.004.568.002.56.001a.373.373 0 0 0-.077 0 .1.1 0 0 0-.02.002.02.02 0 0 0-.01.007.033.033 0 0 0-.006.01L.404.147H.167L.127.023A.039.039 0 0 0 .12.012a.021.021 0 0 0-.01-.008.46.46 0 0 0-.089-.003C.014.002.008.005.004.008.001.012 0 .018.001.024a.16.16 0 0 0 .007.028l.195.56c.002.006.004.01.007.013a.022.022 0 0 0 .012.008.65.65 0 0 0 .136 0C.365.632.37.63.372.625A.044.044 0 0 0 .38.611L.575.05m-.29.463L.194.246h.179l-.09.268z"/></symbol><symbol id="s"><path d="M.521.048a.049.049 0 0 0-.004-.02.04.04 0 0 0-.01-.015A.04.04 0 0 0 .49.004.067.067 0 0 0 .473.002H.418a.115.115 0 0 0-.03.003.063.063 0 0 0-.023.013.122.122 0 0 0-.02.024.495.495 0 0 0-.022.04L.166.377a1.55 1.55 0 0 0-.053.117H.112A2.538 2.538 0 0 0 .116.352V.02A.014.014 0 0 0 .113.012a.02.02 0 0 0-.01-.007.08.08 0 0 0-.017-.004.23.23 0 0 0-.075.004.02.02 0 0 0-.009.007A.016.016 0 0 0 0 .021v.568c0 .015.004.027.013.034a.05.05 0 0 0 .033.012h.07A.122.122 0 0 0 .145.63.06.06 0 0 0 .17.621a.078.078 0 0 0 .019-.02.244.244 0 0 0 .018-.032L.33.338a5.024 5.024 0 0 0 .079-.16 4.323 4.323 0 0 0-.003.141v.297l.003.009a.023.023 0 0 0 .01.006.23.23 0 0 0 .092 0A.02.02 0 0 0 .519.625.016.016 0 0 0 .52.615V.049z"/></symbol><symbol id="t"><path d="M.525.325A.43.43 0 0 0 .502.176a.25.25 0 0 0-.065-.1.264.264 0 0 0-.104-.058A.51.51 0 0 0 .19 0h-.15C.026 0 .018.003.01.01.004.015 0 .025 0 .04v.551c0 .015.004.025.01.031a.04.04 0 0 0 .028.01H.2a.446.446 0 0 0 .143-.02.253.253 0 0 0 .16-.154.383.383 0 0 0 .022-.133M.392.321a.31.31 0 0 1-.01.083.173.173 0 0 1-.034.067.152.152 0 0 1-.06.044.236.236 0 0 1-.095.016H.128v-.43h.067C.23.102.26.107.284.116c.024.01.044.023.06.041a.176.176 0 0 1 .036.07C.388.251.392.283.392.32z"/></symbol><use xlink:href="#r" transform="matrix(4.8589 0 0 -4.8589 94.413 28.578)" fill="#fff"/><use xlink:href="#s" transform="matrix(4.8589 0 0 -4.8589 97.606 28.578)" fill="#fff"/><use xlink:href="#t" transform="matrix(4.8589 0 0 -4.8589 100.828 28.564)" fill="#fff"/><symbol id="u"><path d="M.37.05A.05.05 0 0 0 .367.042.076.076 0 0 0 .366.03.066.066 0 0 0 .358.01.03.03 0 0 0 .352.002.013.013 0 0 0 .344 0h-.33a.012.012 0 0 0-.01.005A.023.023 0 0 0 0 .018a.066.066 0 0 0 .002.017.06.06 0 0 0 .009.021.03.03 0 0 0 .007.008.013.013 0 0 0 .009.003h.132l.095.476L.117.471A.084.084 0 0 0 .104.465H.096A.01.01 0 0 0 .09.472a.041.041 0 0 0 0 .01.11.11 0 0 0 .004.03l.008.015a.03.03 0 0 0 .01.011L.279.63a.027.027 0 0 0 .006.003l.008.002h.01a.193.193 0 0 0 .034 0C.34.635.346.634.348.632.35.632.352.63.353.628a.01.01 0 0 0 0-.005L.243.067h.114C.36.067.365.066.367.062A.023.023 0 0 0 .368.05z"/></symbol><use xlink:href="#u" transform="matrix(8.74602 0 0 -8.74602 121.896 18.652)"/><symbol id="v"><path d="M.36.437A.08.08 0 0 0 .354.408.045.045 0 0 0 .348.395C.346.391.343.39.34.39a.032.032 0 0 0-.014.004.24.24 0 0 1-.048.022.134.134 0 0 1-.076-.002.076.076 0 0 1-.045-.04A.068.068 0 0 1 .15.346C.15.333.155.322.164.313A.142.142 0 0 1 .196.29.849.849 0 0 1 .238.27.192.192 0 0 0 .28.245.121.121 0 0 0 .312.21.09.09 0 0 0 .327.16.151.151 0 0 0 .273.045a.187.187 0 0 0-.06-.033A.254.254 0 0 0 .09.003a.263.263 0 0 0-.065.02.105.105 0 0 0-.018.014.03.03 0 0 0-.006.007.032.032 0 0 0-.001.01.104.104 0 0 0 .005.032.068.068 0 0 0 .005.01.03.03 0 0 0 .005.007.007.007 0 0 0 .006.003C.024.106.029.104.035.099A.224.224 0 0 1 .056.085C.066.08.076.075.09.071A.167.167 0 0 1 .14.064c.018 0 .033.003.046.007.013.004.023.01.032.017a.077.077 0 0 1 .025.057.045.045 0 0 1-.013.033.125.125 0 0 1-.032.024.546.546 0 0 1-.042.02.265.265 0 0 0-.042.025.134.134 0 0 0-.032.034.097.097 0 0 0-.013.052.14.14 0 0 0 .049.107.167.167 0 0 0 .055.032.221.221 0 0 0 .108.008A.263.263 0 0 0 .34.463a.062.062 0 0 0 .016-.01C.359.448.36.442.36.436z"/></symbol><symbol id="w"><path d="M.291.455a.109.109 0 0 0-.002-.02.071.071 0 0 0-.01-.02.022.022 0 0 0-.006-.007.013.013 0 0 0-.007-.002H.153L.104.16A.319.319 0 0 1 .099.117C.1.1.103.087.11.08.117.073.128.07.144.07A.118.118 0 0 1 .196.08a.023.023 0 0 0 .01.003A.007.007 0 0 0 .21.08C.213.078.213.075.213.07L.212.056A.117.117 0 0 0 .204.028a.035.035 0 0 0-.006-.01.046.046 0 0 0-.012-.006A.146.146 0 0 0 .123 0a.17.17 0 0 0-.047.006.086.086 0 0 0-.034.018.08.08 0 0 0-.02.031.144.144 0 0 0-.006.058.263.263 0 0 0 .007.046l.05.247H.01c-.003 0-.006 0-.008.003C0 .41 0 .415 0 .42a.096.096 0 0 0 .006.033C.008.46.01.464.013.467a.015.015 0 0 0 .011.006h.062l.02.104C.108.58.109.582.11.583a.04.04 0 0 0 .02.008.175.175 0 0 0 .04 0A.03.03 0 0 0 .18.589C.184.588.186.585.187.583V.577L.168.473h.112C.284.473.287.47.289.467A.03.03 0 0 0 .29.455z"/></symbol><symbol id="x"><path d="M0 0z"/></symbol><use xlink:href="#v" transform="matrix(5.83068 0 0 -5.83068 125.95 16.257)"/><use xlink:href="#w" transform="matrix(5.83068 0 0 -5.83068 128.427 16.251)"/><use xlink:href="#x" transform="matrix(5.83068 0 0 -5.83068 130.048 16.203)"/><symbol id="y"><path d="M.553.404A.529.529 0 0 0 .51.202.367.367 0 0 0 .422.083.354.354 0 0 0 .276.01.491.491 0 0 0 .168 0h-.14a.05.05 0 0 0-.012.001.025.025 0 0 0-.01.006.02.02 0 0 0-.005.01C0 .023.001.028.002.035l.112.564C.117.61.121.619.13.624a.046.046 0 0 0 .026.008H.29a.394.394 0 0 0 .12-.016.208.208 0 0 0 .08-.044A.179.179 0 0 0 .537.5.266.266 0 0 0 .553.404M.463.397a.206.206 0 0 1-.01.066.127.127 0 0 1-.03.052.145.145 0 0 1-.056.034.253.253 0 0 1-.088.013H.19L.093.07H.18c.04 0 .073.005.1.014A.252.252 0 0 1 .436.25a.393.393 0 0 1 .027.147z"/></symbol><symbol id="z"><path d="M.481.038A.042.042 0 0 0 .453.003.043.043 0 0 0 .441.001H.409a.069.069 0 0 0-.022.003.04.04 0 0 0-.015.01.083.083 0 0 0-.012.019.488.488 0 0 0-.01.029L.23.398a18.283 18.283 0 0 1-.047.144 3.12 3.12 0 0 0-.03-.158L.08.016A.014.014 0 0 0 .076.009.018.018 0 0 0 .07.004.08.08 0 0 0 .055 0 .105.105 0 0 0 .036 0a.105.105 0 0 0-.03.004.011.011 0 0 0-.005.005v.007l.116.583C.119.612.125.62.133.626a.046.046 0 0 0 .025.009h.039c.008 0 .015-.001.02-.003A.034.034 0 0 0 .233.624a.06.06 0 0 0 .01-.017.272.272 0 0 0 .012-.025L.375.24A4.889 4.889 0 0 0 .417.113H.42a7.848 7.848 0 0 0 .03.166L.52.62c0 .003.002.005.003.006A.018.018 0 0 0 .53.632a.052.052 0 0 0 .013.003.162.162 0 0 0 .05-.003L.596.627C.598.626.6.624.598.621L.481.038z"/></symbol><use xlink:href="#y" transform="matrix(8.74602 0 0 -8.74602 131.765 18.652)"/><use xlink:href="#z" transform="matrix(8.74602 0 0 -8.74602 137.144 18.677)"/><use xlink:href="#z" transform="matrix(8.74602 0 0 -8.74602 142.795 18.677)"/><symbol id="A"><path d="M.4.051A.05.05 0 0 0 .397.043.074.074 0 0 0 .388.01.03.03 0 0 0 .38.003.014.014 0 0 0 .372 0h-.35l-.01.001a.017.017 0 0 0-.007.004A.026.026 0 0 0 0 .012a.212.212 0 0 0 0 .021.097.097 0 0 0 .012.036c.004.006.01.013.016.018L.192.23a.965.965 0 0 1 .112.116.37.37 0 0 1 .048.086.159.159 0 0 1 .01.057.088.088 0 0 1-.017.05.066.066 0 0 1-.025.02.099.099 0 0 1-.042.008.17.17 0 0 1-.053-.008A.337.337 0 0 1 .144.52C.134.516.129.513.125.513.122.513.119.515.117.518a.028.028 0 0 0-.003.014v.009l.002.01a.127.127 0 0 0 .007.02.242.242 0 0 0 .004.01.043.043 0 0 0 .007.008c.003.004.01.009.02.015a.294.294 0 0 0 .09.03.25.25 0 0 0 .133-.006.132.132 0 0 0 .049-.033A.111.111 0 0 0 .45.55.15.15 0 0 0 .458.507.21.21 0 0 0 .443.422.44.44 0 0 0 .38.316.903.903 0 0 0 .237.175L.115.07h.27C.39.071.393.07.395.065A.027.027 0 0 0 .399.05z"/></symbol><use xlink:href="#A" transform="matrix(8.74602 0 0 -8.74602 207.681 19.235)"/><symbol id="B"><path d="M.43.357A.288.288 0 0 0 .423.29L.367.015A.017.017 0 0 0 .364.008.017.017 0 0 0 .357.004.052.052 0 0 0 .344 0a.167.167 0 0 0-.051.003.013.013 0 0 0-.006.004v.007L.34.287c.002.01.004.02.004.029L.347.34c0 .02-.004.036-.013.048C.326.4.312.407.292.407A.11.11 0 0 1 .238.392a.188.188 0 0 1-.05-.04.298.298 0 0 1-.068-.14L.081.014A.017.017 0 0 0 .078.008.022.022 0 0 0 .07.004.053.053 0 0 0 .057 0a.162.162 0 0 0-.051.003.013.013 0 0 0-.005.004v.007l.088.44.002.006a.018.018 0 0 0 .007.005.131.131 0 0 0 .056 0C.157.465.158.463.159.461V.455L.143.371a.138.138 0 0 0 .024.035.215.215 0 0 0 .09.06.165.165 0 0 0 .112 0A.095.095 0 0 0 .424.402.17.17 0 0 0 .43.357z"/></symbol><symbol id="C"><path d="M.357.021C.357.016.353.012.347.01a.089.089 0 0 0-.03-.004L.302.007a.053.053 0 0 0-.01.003.013.013 0 0 0-.005.004v.007L.3.104A.12.12 0 0 0 .278.069a.226.226 0 0 0-.09-.06.17.17 0 0 0-.106-.001.108.108 0 0 0-.036.02.113.113 0 0 0-.024.03.21.21 0 0 0-.02.07.413.413 0 0 0 .05.236.26.26 0 0 0 .045.06.21.21 0 0 0 .06.043.179.179 0 0 0 .15-.002.136.136 0 0 0 .027-.019.222.222 0 0 0 .023-.023l.05.249.003.006a.013.013 0 0 0 .007.005.112.112 0 0 0 .052.003C.474.686.48.684.481.683.484.683.486.681.487.678a.009.009 0 0 0 0-.006l-.13-.65M.342.344a.183.183 0 0 1-.05.051.105.105 0 0 1-.106.005A.136.136 0 0 1 .148.37.215.215 0 0 1 .12.324.377.377 0 0 1 .084.167C.084.135.09.11.101.094.11.077.129.069.152.069c.018 0 .036.005.054.014a.19.19 0 0 1 .05.041.312.312 0 0 1 .068.14l.018.08z"/></symbol><use xlink:href="#B" transform="matrix(5.83068 0 0 -5.83068 212.16 16.92)"/><use xlink:href="#C" transform="matrix(5.83068 0 0 -5.83068 215.185 16.957)"/><use xlink:href="#x" transform="matrix(5.83068 0 0 -5.83068 217.93 16.903)"/><symbol id="D"><path d="M0 0z"/></symbol><use xlink:href="#y" transform="matrix(8.74602 0 0 -8.74602 219.647 19.235)"/><use xlink:href="#z" transform="matrix(8.74602 0 0 -8.74602 225.026 19.26)"/><use xlink:href="#z" transform="matrix(8.74602 0 0 -8.74602 230.676 19.26)"/><use xlink:href="#D" transform="matrix(8.74602 0 0 -8.74602 235.974 19.235)"/><path d="M104.829 98.502c0-.898.728-1.626 1.626-1.626h139.162c.898 0 1.627.728 1.627 1.626v10.578c0 .898-.729 1.626-1.627 1.626H106.455a1.626 1.626 0 0 1-1.626-1.626z" fill="#ebedf3" fill-rule="evenodd"/><path stroke-width=".381" stroke-linejoin="round" fill="none" stroke="#000" d="M104.829 98.502c0-.898.728-1.626 1.626-1.626h139.162c.898 0 1.627.728 1.627 1.626v10.578c0 .898-.729 1.626-1.627 1.626H106.455a1.626 1.626 0 0 1-1.626-1.626z"/><symbol id="E"><path d="M.473.599.472.583A.033.033 0 0 0 .468.57.013.013 0 0 0 .463.565.012.012 0 0 0 .456.563H.278V.016c0-.003 0-.005-.002-.007A.014.014 0 0 0 .27.004.112.112 0 0 0 .237 0a.117.117 0 0 0-.034.004.014.014 0 0 0-.007.005.012.012 0 0 0-.002.007v.547H.017L.009.565a.015.015 0 0 0-.005.006A.058.058 0 0 0 0 .6l.001.016a.057.057 0 0 0 .003.011.014.014 0 0 0 .005.007.015.015 0 0 0 .008.002h.44c.002 0 .004 0 .006-.002A.013.013 0 0 0 .468.626.033.033 0 0 0 .472.615V.599z"/></symbol><symbol id="F"><path d="M.378.015c0-.002 0-.005-.002-.007A.017.017 0 0 0 .37.004.045.045 0 0 0 .358 0a.162.162 0 0 0-.052.003A.017.017 0 0 0 .3.008a.012.012 0 0 0-.002.007v.257a.253.253 0 0 1-.006.061.125.125 0 0 1-.017.04.074.074 0 0 1-.03.025.09.09 0 0 1-.04.009.104.104 0 0 1-.061-.022.328.328 0 0 1-.063-.063V.015L.079.008A.017.017 0 0 0 .072.004.045.045 0 0 0 .06 0a.167.167 0 0 0-.052.003A.017.017 0 0 0 0 .008.015.015 0 0 0 0 .015v.652l.001.007A.014.014 0 0 0 .008.68.052.052 0 0 0 .02.682.162.162 0 0 0 .072.68.014.014 0 0 0 .08.674.012.012 0 0 0 .08.667V.404a.256.256 0 0 0 .07.054.162.162 0 0 0 .145.003.13.13 0 0 0 .048-.04A.156.156 0 0 0 .37.364a.337.337 0 0 0 .008-.08V.015z"/></symbol><symbol id="G"><path d="M.258.178.2.016C.198.011.193.007.185.004A.11.11 0 0 0 .148 0l-.02.001a.028.028 0 0 0-.012.004.01.01 0 0 0-.005.008c0 .003 0 .007.003.012l.06.153a.025.025 0 0 0-.008.006.025.025 0 0 0-.005.01l-.157.42A.049.049 0 0 0 0 .628c0 .004.001.007.004.01a.023.023 0 0 0 .013.004.208.208 0 0 0 .06-.002.012.012 0 0 0 .006-.006.045.045 0 0 0 .005-.01L.213.273h.002l.12.354C.339.634.34.637.344.64a.03.03 0 0 0 .012.004.147.147 0 0 0 .047 0C.408.643.412.641.415.64a.011.011 0 0 0 .004-.01.048.048 0 0 0-.003-.014L.258.178z"/></symbol><symbol id="H"><path d="M0 0z"/></symbol><symbol id="I"><path d="M.287.053c0-.01 0-.017-.002-.023A.025.025 0 0 0 .28.018.038.038 0 0 0 .268.011a.186.186 0 0 0-.12-.002.098.098 0 0 0-.064.074.285.285 0 0 0-.006.066v.257H.016C.011.406.007.408.004.414A.055.055 0 0 0 0 .439l.001.016a.047.047 0 0 0 .003.01L.01.47a.015.015 0 0 0 .008.002h.06v.104L.08.583a.014.014 0 0 0 .006.005.04.04 0 0 0 .013.004A.162.162 0 0 0 .15.588.014.014 0 0 0 .156.583.011.011 0 0 0 .158.577V.473h.113L.278.47.283.465a.027.027 0 0 0 .003-.01L.287.439A.055.055 0 0 0 .283.414C.28.408.276.406.27.406H.158V.16c0-.03.005-.054.013-.07C.181.077.197.07.22.07a.093.093 0 0 1 .035.007.34.34 0 0 1 .02.007C.279.083.28.082.28.08.282.081.283.08.284.077a.042.042 0 0 0 .002-.01L.287.053z"/></symbol><symbol id="J"><path d="M.486.325A.445.445 0 0 0 .465.182.261.261 0 0 0 .403.08.252.252 0 0 0 .305.02.433.433 0 0 0 .165 0H.031A.036.036 0 0 0 .01.007C.003.013 0 .021 0 .034v.564C0 .61.003.619.01.624A.035.035 0 0 0 .03.632h.143C.23.632.275.625.313.61A.247.247 0 0 0 .466.453a.382.382 0 0 0 .02-.128M.397.322a.342.342 0 0 1-.012.095.203.203 0 0 1-.04.077.182.182 0 0 1-.069.05.27.27 0 0 1-.107.018H.084V.07H.17a.3.3 0 0 1 .102.015c.028.01.051.026.07.047A.2.2 0 0 1 .383.21c.01.032.014.069.014.112z"/></symbol><symbol id="K"><path d="M.105.058C.105.035.101.019.093.01.086.004.072 0 .052 0S.019.004.012.011C.003.02 0 .034 0 .056 0 .08.004.095.011.102.02.11.033.114.053.114c.02 0 .033-.004.04-.011C.102.095.106.08.106.058z"/></symbol><use xlink:href="#E" transform="matrix(7.77424 0 0 -7.77424 117.353 106.368)"/><use xlink:href="#F" transform="matrix(7.77424 0 0 -7.77424 121.642 106.368)"/><use xlink:href="#i" transform="matrix(7.77424 0 0 -7.77424 125.484 106.417)"/><use xlink:href="#G" transform="matrix(7.77424 0 0 -7.77424 129.095 107.727)"/><use xlink:href="#H" transform="matrix(7.77424 0 0 -7.77424 132.491 106.345)"/><use xlink:href="#k" transform="matrix(7.77424 0 0 -7.77424 134.559 106.417)"/><use xlink:href="#l" transform="matrix(7.77424 0 0 -7.77424 137.636 106.417)"/><use xlink:href="#m" transform="matrix(7.77424 0 0 -7.77424 141.495 106.368)"/><use xlink:href="#e" transform="matrix(7.77424 0 0 -7.77424 143.115 106.417)"/><use xlink:href="#H" transform="matrix(7.77424 0 0 -7.77424 146.82 106.345)"/><use xlink:href="#I" transform="matrix(7.77424 0 0 -7.77424 148.705 106.41)"/><use xlink:href="#F" transform="matrix(7.77424 0 0 -7.77424 151.775 106.368)"/><use xlink:href="#i" transform="matrix(7.77424 0 0 -7.77424 155.617 106.417)"/><use xlink:href="#H" transform="matrix(7.77424 0 0 -7.77424 159.154 106.345)"/><use xlink:href="#n" transform="matrix(7.77424 0 0 -7.77424 161.495 106.417)"/><use xlink:href="#o" transform="matrix(7.77424 0 0 -7.77424 165.564 106.368)"/><use xlink:href="#l" transform="matrix(7.77424 0 0 -7.77424 167.092 106.417)"/><use xlink:href="#p" transform="matrix(7.77424 0 0 -7.77424 170.788 106.417)"/><use xlink:href="#q" transform="matrix(7.77424 0 0 -7.77424 174.311 106.368)"/><use xlink:href="#H" transform="matrix(7.77424 0 0 -7.77424 177.255 106.345)"/><use xlink:href="#e" transform="matrix(7.77424 0 0 -7.77424 179.38 106.417)"/><use xlink:href="#f" transform="matrix(7.77424 0 0 -7.77424 183.426 106.417)"/><use xlink:href="#g" transform="matrix(7.77424 0 0 -7.77424 187.417 107.73)"/><use xlink:href="#H" transform="matrix(7.77424 0 0 -7.77424 190.857 106.345)"/><use xlink:href="#m" transform="matrix(7.77424 0 0 -7.77424 193.122 106.368)"/><use xlink:href="#k" transform="matrix(7.77424 0 0 -7.77424 194.685 106.417)"/><use xlink:href="#H" transform="matrix(7.77424 0 0 -7.77424 197.412 106.345)"/><use xlink:href="#f" transform="matrix(7.77424 0 0 -7.77424 199.514 106.417)"/><use xlink:href="#h" transform="matrix(7.77424 0 0 -7.77424 203.402 106.368)"/><use xlink:href="#i" transform="matrix(7.77424 0 0 -7.77424 207.073 106.417)"/><use xlink:href="#j" transform="matrix(7.77424 0 0 -7.77424 211.19 106.368)"/><use xlink:href="#H" transform="matrix(7.77424 0 0 -7.77424 213.342 106.345)"/><use xlink:href="#J" transform="matrix(7.77424 0 0 -7.77424 215.755 106.345)"/><use xlink:href="#l" transform="matrix(7.77424 0 0 -7.77424 220.25 106.417)"/><use xlink:href="#h" transform="matrix(7.77424 0 0 -7.77424 223.61 106.368)"/><use xlink:href="#m" transform="matrix(7.77424 0 0 -7.77424 227.51 106.368)"/><use xlink:href="#e" transform="matrix(7.77424 0 0 -7.77424 229.13 106.417)"/><use xlink:href="#K" transform="matrix(7.77424 0 0 -7.77424 233.408 106.38)"/><path d="M66.381 82.994c0-1.185.96-2.145 2.145-2.145h22.358c1.185 0 2.145.96 2.145 2.145v8.581c0 1.185-.96 2.145-2.145 2.145H68.526a2.145 2.145 0 0 1-2.145-2.145z" fill="#ebedf3" fill-rule="evenodd"/><path stroke-width=".508" stroke-miterlimit="8" fill="none" stroke="#000" d="M66.381 82.994c0-1.185.96-2.145 2.145-2.145h22.358c1.185 0 2.145.96 2.145 2.145v8.581c0 1.185-.96 2.145-2.145 2.145H68.526a2.145 2.145 0 0 1-2.145-2.145z"/><use xlink:href="#E" transform="matrix(7.77424 0 0 -7.77424 72.164 89.925)"/><use xlink:href="#F" transform="matrix(7.77424 0 0 -7.77424 76.454 89.925)"/><use xlink:href="#i" transform="matrix(7.77424 0 0 -7.77424 80.295 89.975)"/><use xlink:href="#G" transform="matrix(7.77424 0 0 -7.77424 83.907 91.284)"/><path d="M97.224 82.994c0-1.185.96-2.145 2.145-2.145h22.358c1.185 0 2.145.96 2.145 2.145v8.581c0 1.185-.96 2.145-2.145 2.145H99.369a2.145 2.145 0 0 1-2.145-2.145z" fill="#ebedf3" fill-rule="evenodd"/><path stroke-width=".508" stroke-miterlimit="8" fill="none" stroke="#000" d="M97.224 82.994c0-1.185.96-2.145 2.145-2.145h22.358c1.185 0 2.145.96 2.145 2.145v8.581c0 1.185-.96 2.145-2.145 2.145H99.369a2.145 2.145 0 0 1-2.145-2.145z"/><use xlink:href="#k" transform="matrix(7.77424 0 0 -7.77424 104.57 89.975)"/><use xlink:href="#l" transform="matrix(7.77424 0 0 -7.77424 107.648 89.975)"/><use xlink:href="#m" transform="matrix(7.77424 0 0 -7.77424 111.509 89.925)"/><use xlink:href="#e" transform="matrix(7.77424 0 0 -7.77424 113.13 89.975)"/><path d="M128.067 82.994c0-1.185.96-2.145 2.145-2.145h22.358c1.185 0 2.145.96 2.145 2.145v8.581c0 1.185-.96 2.145-2.145 2.145h-22.358a2.145 2.145 0 0 1-2.145-2.145z" fill="#ebedf3" fill-rule="evenodd"/><path stroke-width=".508" stroke-miterlimit="8" fill="none" stroke="#000" d="M128.067 82.994c0-1.185.96-2.145 2.145-2.145h22.358c1.185 0 2.145.96 2.145 2.145v8.581c0 1.185-.96 2.145-2.145 2.145h-22.358a2.145 2.145 0 0 1-2.145-2.145z"/><use xlink:href="#I" transform="matrix(7.77424 0 0 -7.77424 136.232 89.967)"/><use xlink:href="#F" transform="matrix(7.77424 0 0 -7.77424 139.299 89.925)"/><use xlink:href="#i" transform="matrix(7.77424 0 0 -7.77424 143.136 89.975)"/><path d="M158.91 82.994c0-1.185.96-2.145 2.145-2.145h22.358c1.185 0 2.145.96 2.145 2.145v8.581c0 1.185-.96 2.145-2.145 2.145h-22.358a2.145 2.145 0 0 1-2.145-2.145z" fill="#ebedf3" fill-rule="evenodd"/><path stroke-width=".508" stroke-miterlimit="8" fill="none" stroke="#000" d="M158.91 82.994c0-1.185.96-2.145 2.145-2.145h22.358c1.185 0 2.145.96 2.145 2.145v8.581c0 1.185-.96 2.145-2.145 2.145h-22.358a2.145 2.145 0 0 1-2.145-2.145z"/><use xlink:href="#n" transform="matrix(7.77424 0 0 -7.77424 164.646 89.975)"/><use xlink:href="#o" transform="matrix(7.77424 0 0 -7.77424 168.715 89.925)"/><use xlink:href="#l" transform="matrix(7.77424 0 0 -7.77424 170.243 89.975)"/><use xlink:href="#p" transform="matrix(7.77424 0 0 -7.77424 173.94 89.975)"/><use xlink:href="#q" transform="matrix(7.77424 0 0 -7.77424 177.462 89.925)"/><path d="M189.753 82.994c0-1.185.96-2.145 2.145-2.145h22.358c1.184 0 2.145.96 2.145 2.145v8.581c0 1.185-.96 2.145-2.145 2.145h-22.358a2.145 2.145 0 0 1-2.145-2.145z" fill="#ebedf3" fill-rule="evenodd"/><path stroke-width=".508" stroke-miterlimit="8" fill="none" stroke="#000" d="M189.753 82.994c0-1.185.96-2.145 2.145-2.145h22.358c1.184 0 2.145.96 2.145 2.145v8.581c0 1.185-.96 2.145-2.145 2.145h-22.358a2.145 2.145 0 0 1-2.145-2.145z"/><use xlink:href="#e" transform="matrix(7.77424 0 0 -7.77424 197.52 89.975)"/><use xlink:href="#f" transform="matrix(7.77424 0 0 -7.77424 201.566 89.975)"/><use xlink:href="#g" transform="matrix(7.77424 0 0 -7.77424 205.556 91.288)"/><path d="M220.595 82.994c0-1.185.961-2.145 2.146-2.145h22.357c1.185 0 2.146.96 2.146 2.145v8.581c0 1.185-.96 2.145-2.146 2.145h-22.357a2.145 2.145 0 0 1-2.146-2.145z" fill="#ebedf3" fill-rule="evenodd"/><path stroke-width=".508" stroke-miterlimit="8" fill="none" stroke="#000" d="M220.595 82.994c0-1.185.961-2.145 2.146-2.145h22.357c1.185 0 2.146.96 2.146 2.145v8.581c0 1.185-.96 2.145-2.146 2.145h-22.357a2.145 2.145 0 0 1-2.146-2.145z"/><use xlink:href="#m" transform="matrix(7.77424 0 0 -7.77424 232.025 89.925)"/><use xlink:href="#k" transform="matrix(7.77424 0 0 -7.77424 233.59 89.975)"/><path d="M251.438 82.994c0-1.185.96-2.145 2.146-2.145h22.357c1.185 0 2.146.96 2.146 2.145v8.581c0 1.185-.96 2.145-2.146 2.145h-22.357a2.145 2.145 0 0 1-2.146-2.145z" fill="#ebedf3" fill-rule="evenodd"/><path stroke-width=".508" stroke-miterlimit="8" fill="none" stroke="#000" d="M251.438 82.994c0-1.185.96-2.145 2.146-2.145h22.357c1.185 0 2.146.96 2.146 2.145v8.581c0 1.185-.96 2.145-2.146 2.145h-22.357a2.145 2.145 0 0 1-2.146-2.145z"/><use xlink:href="#f" transform="matrix(7.77424 0 0 -7.77424 258.022 89.975)"/><use xlink:href="#h" transform="matrix(7.77424 0 0 -7.77424 261.906 89.925)"/><use xlink:href="#i" transform="matrix(7.77424 0 0 -7.77424 265.573 89.975)"/><use xlink:href="#j" transform="matrix(7.77424 0 0 -7.77424 269.687 89.925)"/><path d="M282.281 82.994c0-1.185.96-2.145 2.146-2.145h22.357c1.185 0 2.146.96 2.146 2.145v8.581c0 1.185-.96 2.145-2.146 2.145h-22.357a2.145 2.145 0 0 1-2.146-2.145z" fill="#ebedf3" fill-rule="evenodd"/><path stroke-width=".508" stroke-miterlimit="8" fill="none" stroke="#000" d="M282.281 82.994c0-1.185.96-2.145 2.146-2.145h22.357c1.185 0 2.146.96 2.146 2.145v8.581c0 1.185-.96 2.145-2.146 2.145h-22.357a2.145 2.145 0 0 1-2.146-2.145z"/><use xlink:href="#J" transform="matrix(7.77424 0 0 -7.77424 287.311 89.786)"/><use xlink:href="#l" transform="matrix(7.77424 0 0 -7.77424 291.806 89.858)"/><use xlink:href="#h" transform="matrix(7.77424 0 0 -7.77424 295.164 89.809)"/><use xlink:href="#m" transform="matrix(7.77424 0 0 -7.77424 299.063 89.809)"/><use xlink:href="#e" transform="matrix(7.77424 0 0 -7.77424 300.68 89.858)"/><symbol id="L"><path d="M.085.015A.011.011 0 0 0 .08.01.018.018 0 0 0 .073.004.117.117 0 0 0 .04 0a.115.115 0 0 0-.032.004C.004.005.002.007.001.009a.009.009 0 0 0 0 .006l.12.608.004.006a.022.022 0 0 0 .009.004.117.117 0 0 0 .053.003C.192.636.196.635.199.633.202.633.204.631.205.63a.009.009 0 0 0 0-.006L.086.015z"/></symbol><symbol id="M"><path d="M.43.357A.288.288 0 0 0 .423.29L.367.015A.017.017 0 0 0 .364.008.017.017 0 0 0 .357.004.052.052 0 0 0 .344 0a.167.167 0 0 0-.051.003.013.013 0 0 0-.006.004v.007L.34.287c.002.01.004.02.004.029L.347.34c0 .02-.004.036-.013.048C.326.4.312.407.292.407A.11.11 0 0 1 .238.392a.188.188 0 0 1-.05-.04.298.298 0 0 1-.068-.14L.081.014A.017.017 0 0 0 .078.008.022.022 0 0 0 .07.004.053.053 0 0 0 .057 0a.162.162 0 0 0-.051.003.013.013 0 0 0-.005.004v.007l.088.44.002.006a.018.018 0 0 0 .007.005.131.131 0 0 0 .056 0C.157.465.158.463.159.461V.455L.143.371a.138.138 0 0 0 .024.035.215.215 0 0 0 .09.06.165.165 0 0 0 .112 0A.095.095 0 0 0 .424.402.17.17 0 0 0 .43.357z"/></symbol><symbol id="N"><path d="M.48.492A.434.434 0 0 0 .384.227a.18.18 0 0 0-.21-.042.163.163 0 0 0-.052.042L.081.016A.017.017 0 0 0 .077.009.014.014 0 0 0 .071.004.053.053 0 0 0 .057 0a.167.167 0 0 0-.05.003C.004.005.002.007 0 .009a.012.012 0 0 0 0 .007L.123.63c0 .005.004.009.01.011a.089.089 0 0 0 .029.004L.18.644A.028.028 0 0 0 .19.64C.192.641.194.64.195.637V.63L.18.546C.183.557.19.57.2.581a.223.223 0 0 0 .09.06A.163.163 0 0 0 .41.64.111.111 0 0 0 .451.604a.134.134 0 0 0 .022-.05A.268.268 0 0 0 .48.492M.396.487a.178.178 0 0 1-.004.038.084.084 0 0 1-.012.03.053.053 0 0 1-.02.02.066.066 0 0 1-.033.007.113.113 0 0 1-.053-.015.185.185 0 0 1-.051-.04.3.3 0 0 1-.068-.141L.139.306A.178.178 0 0 1 .188.253a.11.11 0 0 1 .06-.017C.264.237.28.241.293.25a.128.128 0 0 1 .038.032.343.343 0 0 1 .06.155.352.352 0 0 1 .004.05z"/></symbol><symbol id="O"><path d="M.342.021A.013.013 0 0 0 .339.015.018.018 0 0 0 .332.01a.124.124 0 0 0-.056 0 .012.012 0 0 0-.005.005V.02l.017.083A.144.144 0 0 0 .263.069a.226.226 0 0 0-.09-.06A.159.159 0 0 0 .12 0a.15.15 0 0 0-.056.01.095.095 0 0 0-.037.024.102.102 0 0 0-.02.037A.185.185 0 0 0 0 .12a.28.28 0 0 0 .008.067l.054.275c0 .003.002.005.003.007a.018.018 0 0 0 .008.005.175.175 0 0 0 .064 0L.142.468A.01.01 0 0 0 .143.46L.09.19A.223.223 0 0 1 .086.108.047.047 0 0 1 .112.074.062.062 0 0 1 .138.069a.11.11 0 0 1 .053.014c.018.01.035.024.05.042A.315.315 0 0 1 .31.267l.04.194c0 .003 0 .005.002.007A.023.023 0 0 0 .36.473a.175.175 0 0 0 .064 0C.427.47.429.47.429.468A.01.01 0 0 0 .43.46L.342.021z"/></symbol><symbol id="P"><path d="M.291.455a.109.109 0 0 0-.002-.02.071.071 0 0 0-.01-.02.022.022 0 0 0-.006-.007.013.013 0 0 0-.007-.002H.153L.104.16A.319.319 0 0 1 .099.117C.1.1.103.087.11.08.117.073.128.07.144.07A.118.118 0 0 1 .196.08a.023.023 0 0 0 .01.003A.007.007 0 0 0 .21.08C.213.078.213.075.213.07L.212.056A.117.117 0 0 0 .204.028a.035.035 0 0 0-.006-.01.046.046 0 0 0-.012-.006A.146.146 0 0 0 .123 0a.17.17 0 0 0-.047.006.086.086 0 0 0-.034.018.08.08 0 0 0-.02.031.144.144 0 0 0-.006.058.263.263 0 0 0 .007.046l.05.247H.01c-.003 0-.006 0-.008.003C0 .41 0 .415 0 .42a.096.096 0 0 0 .006.033C.008.46.01.464.013.467a.015.015 0 0 0 .011.006h.062l.02.104C.108.58.109.582.11.583a.04.04 0 0 0 .02.008.175.175 0 0 0 .04 0A.03.03 0 0 0 .18.589C.184.588.186.585.187.583V.577L.168.473h.112C.284.473.287.47.289.467A.03.03 0 0 0 .29.455z"/></symbol><symbol id="Q"><path d="M.36.437A.08.08 0 0 0 .354.408.045.045 0 0 0 .348.395C.346.391.343.39.34.39a.032.032 0 0 0-.014.004.24.24 0 0 1-.048.022.134.134 0 0 1-.076-.002.076.076 0 0 1-.045-.04A.068.068 0 0 1 .15.346C.15.333.155.322.164.313A.142.142 0 0 1 .196.29.849.849 0 0 1 .238.27.192.192 0 0 0 .28.245.121.121 0 0 0 .312.21.09.09 0 0 0 .327.16.151.151 0 0 0 .273.045a.187.187 0 0 0-.06-.033A.254.254 0 0 0 .09.003a.263.263 0 0 0-.065.02.105.105 0 0 0-.018.014.03.03 0 0 0-.006.007.032.032 0 0 0-.001.01.104.104 0 0 0 .005.032.068.068 0 0 0 .005.01.03.03 0 0 0 .005.007.007.007 0 0 0 .006.003C.024.106.029.104.035.099A.224.224 0 0 1 .056.085C.066.08.076.075.09.071A.167.167 0 0 1 .14.064c.018 0 .033.003.046.007.013.004.023.01.032.017a.077.077 0 0 1 .025.057.045.045 0 0 1-.013.033.125.125 0 0 1-.032.024.546.546 0 0 1-.042.02.265.265 0 0 0-.042.025.134.134 0 0 0-.032.034.097.097 0 0 0-.013.052.14.14 0 0 0 .049.107.167.167 0 0 0 .055.032.221.221 0 0 0 .108.008A.263.263 0 0 0 .34.463a.062.062 0 0 0 .016-.01C.359.448.36.442.36.436z"/></symbol><symbol id="R"><path d="M.414.371a.118.118 0 0 0-.016-.06A.128.128 0 0 0 .35.265a.281.281 0 0 0-.085-.03.648.648 0 0 0-.124-.01H.089a.281.281 0 0 1-.006-.06c0-.032.008-.057.024-.074C.123.074.149.065.186.065a.325.325 0 0 1 .129.024.052.052 0 0 0 .016.005c.003 0 .005 0 .006-.003C.34.089.34.086.34.082L.339.07A.122.122 0 0 0 .336.056.066.066 0 0 0 .33.043a.043.043 0 0 0-.007-.01A.063.063 0 0 0 .303.02a.316.316 0 0 0-.08-.018A.41.41 0 0 0 .173 0a.267.267 0 0 0-.075.01.139.139 0 0 0-.055.03.128.128 0 0 0-.032.05A.213.213 0 0 0 0 .162a.425.425 0 0 0 .025.14c.01.024.02.046.035.068a.24.24 0 0 0 .117.098c.025.01.054.015.086.015.027 0 .05-.004.069-.01A.14.14 0 0 0 .379.446.097.097 0 0 0 .414.371M.332.364c0 .016-.007.03-.02.04a.087.087 0 0 1-.056.015A.133.133 0 0 1 .2.41a.146.146 0 0 1-.043-.03.19.19 0 0 1-.032-.044.28.28 0 0 1-.022-.051h.05A.48.48 0 0 1 .238.29C.261.294.28.3.293.307a.07.07 0 0 1 .03.026c.006.01.009.02.009.03z"/></symbol><symbol id="S"><path d="M.38.422C.38.417.38.41.378.404A.078.078 0 0 0 .373.387.048.048 0 0 0 .365.374a.013.013 0 0 0-.01-.006C.35.368.344.37.34.375a.161.161 0 0 1-.05.032.125.125 0 0 1-.046.008A.115.115 0 0 1 .188.4.144.144 0 0 1 .146.368.19.19 0 0 1 .117.32.372.372 0 0 1 .084.17c0-.033.008-.058.022-.075C.121.078.143.07.172.07a.166.166 0 0 1 .093.025.39.39 0 0 1 .026.018c.007.005.013.008.018.008C.312.121.314.12.315.117a.018.018 0 0 0 .002-.01.124.124 0 0 0-.01-.046A.044.044 0 0 0 .3.047.21.21 0 0 0 .203.005.218.218 0 0 0 .156 0C.104 0 .065.013.04.04.013.067 0 .106 0 .16a.474.474 0 0 0 .022.135.405.405 0 0 0 .032.07.246.246 0 0 0 .111.102.212.212 0 0 0 .122.012A.204.204 0 0 0 .32.471.124.124 0 0 0 .35.457.12.12 0 0 0 .37.443a.029.029 0 0 0 .008-.01.024.024 0 0 0 .002-.01z"/></symbol><use xlink:href="#L" transform="matrix(8.74602 0 0 -8.74602 2.957 107.42)"/><use xlink:href="#M" transform="matrix(8.74602 0 0 -8.74602 5.063 107.42)"/><use xlink:href="#N" transform="matrix(8.74602 0 0 -8.74602 9.254 108.95)"/><use xlink:href="#O" transform="matrix(8.74602 0 0 -8.74602 14.26 107.476)"/><use xlink:href="#P" transform="matrix(8.74602 0 0 -8.74602 18.76 107.467)"/><use xlink:href="#D" transform="matrix(8.74602 0 0 -8.74602 21.19 107.395)"/><use xlink:href="#Q" transform="matrix(8.74602 0 0 -8.74602 23.23 107.476)"/><use xlink:href="#R" transform="matrix(8.74602 0 0 -8.74602 26.923 107.476)"/><use xlink:href="#M" transform="matrix(8.74602 0 0 -8.74602 31.056 107.42)"/><use xlink:href="#P" transform="matrix(8.74602 0 0 -8.74602 35.675 107.467)"/><use xlink:href="#R" transform="matrix(8.74602 0 0 -8.74602 38.337 107.476)"/><use xlink:href="#M" transform="matrix(8.74602 0 0 -8.74602 42.47 107.42)"/><use xlink:href="#S" transform="matrix(8.74602 0 0 -8.74602 47.018 107.476)"/><use xlink:href="#R" transform="matrix(8.74602 0 0 -8.74602 50.608 107.476)"/><symbol id="T"><path d="M.394.458.393.448A1.648 1.648 0 0 0 .238.115a1.062 1.062 0 0 0-.08-.108.032.032 0 0 0-.011-.004.303.303 0 0 0-.071.001.016.016 0 0 0-.008.005.02.02 0 0 0-.002.009L0 .434 0 .444V.45c0 .004 0 .008.002.01a.013.013 0 0 0 .006.005.172.172 0 0 0 .064 0C.077.466.079.464.08.461A.022.022 0 0 0 .08.454L.133.092V.086l.003.003a1.907 1.907 0 0 1 .097.168 2.22 2.22 0 0 1 .08.204.016.016 0 0 0 .008.005.2.2 0 0 0 .065 0C.39.467.391.466.392.464A.007.007 0 0 0 .394.458z"/></symbol><symbol id="U"><path d="M.357.021A.016.016 0 0 0 .347.01a.089.089 0 0 0-.03-.004A.11.11 0 0 0 .29.01a.013.013 0 0 0-.006.004v.007l.016.083A.123.123 0 0 0 .278.07a.215.215 0 0 0-.09-.06.163.163 0 0 0-.121.004.112.112 0 0 0-.04.036.14.14 0 0 0-.022.05.311.311 0 0 0 0 .12.493.493 0 0 0 .046.142.28.28 0 0 0 .045.06.199.199 0 0 0 .06.044.175.175 0 0 0 .077.017.147.147 0 0 0 .075-.018.19.19 0 0 0 .055-.048l.01.044c0 .006.005.01.01.012a.09.09 0 0 0 .03.003.11.11 0 0 0 .026-.003C.442.47.444.47.444.468V.46L.358.021M.342.346a.17.17 0 0 1-.05.05.107.107 0 0 1-.06.018A.092.092 0 0 1 .185.4.137.137 0 0 1 .147.368.236.236 0 0 1 .119.321a.377.377 0 0 1-.032-.19A.107.107 0 0 1 .097.1.066.066 0 0 1 .118.077.063.063 0 0 1 .152.07c.018 0 .036.005.054.014.018.01.035.024.05.042a.29.29 0 0 1 .07.14l.016.081z"/></symbol><symbol id="V"><path d="M.337.454A.31.31 0 0 0 .332.418.097.097 0 0 0 .327.404.055.055 0 0 0 .32.394C.32.39.316.388.314.388a.483.483 0 0 1-.032.01A.067.067 0 0 1 .265.4.073.073 0 0 1 .226.386a.197.197 0 0 1-.042-.04A.323.323 0 0 1 .12.211L.08.015A.017.017 0 0 0 .078.008.022.022 0 0 0 .07.004.053.053 0 0 0 .057 0a.162.162 0 0 0-.051.003.013.013 0 0 0-.005.004v.007l.087.44.003.006a.018.018 0 0 0 .007.005.131.131 0 0 0 .056 0C.157.465.158.463.159.461V.455L.143.375a.209.209 0 0 0 .098.093.102.102 0 0 0 .056.007.11.11 0 0 0 .028-.007.022.022 0 0 0 .01-.005L.336.454z"/></symbol><symbol id="W"><path d="M.208.603A.092.092 0 0 0 .2.58.04.04 0 0 0 .19.564.044.044 0 0 0 .172.557a.11.11 0 0 0-.048 0A.025.025 0 0 0 .11.564.027.027 0 0 0 .106.58a.103.103 0 0 0 .01.045.049.049 0 0 0 .01.015c.005.004.01.007.017.008a.11.11 0 0 0 .048 0A.021.021 0 0 0 .205.64.025.025 0 0 0 .21.625C.21.619.21.612.208.603M.08.015A.017.017 0 0 0 .078.008.022.022 0 0 0 .07.004.053.053 0 0 0 .057 0a.162.162 0 0 0-.051.003.013.013 0 0 0-.005.004v.007l.087.44.003.006a.018.018 0 0 0 .007.005.052.052 0 0 0 .013.003.18.18 0 0 0 .04 0C.156.469.16.467.162.466.165.465.167.463.168.46V.455L.082.015z"/></symbol><symbol id="X"><path d="M.446.324A.439.439 0 0 0 .393.118.254.254 0 0 0 .35.058a.212.212 0 0 0-.06-.042A.179.179 0 0 0 .213 0a.158.158 0 0 0-.075.017.175.175 0 0 0-.056.047L.073.021C.073.016.07.012.063.01a.09.09 0 0 0-.03-.004.063.063 0 0 0-.027.004C.002.013 0 .017.001.021l.13.653.003.007a.018.018 0 0 0 .007.005.061.061 0 0 0 .014.002.18.18 0 0 0 .04 0 .044.044 0 0 0 .01-.002C.21.684.212.683.212.68V.674L.174.478a.492.492 0 0 0-.02-.08.574.574 0 0 0-.007-.02.138.138 0 0 0 .024.035.223.223 0 0 0 .09.06.15.15 0 0 0 .104.002.11.11 0 0 0 .06-.05A.155.155 0 0 0 .436.39a.223.223 0 0 0 .01-.067M.361.317l-.003.03A.103.103 0 0 1 .35.38a.062.062 0 0 1-.02.024.057.057 0 0 1-.036.01A.11.11 0 0 1 .24.399.19.19 0 0 1 .189.356.3.3 0 0 1 .12.216L.104.135a.167.167 0 0 1 .05-.05.112.112 0 0 1 .06-.016.09.09 0 0 1 .045.012.14.14 0 0 1 .037.03c.011.014.02.029.029.045a.332.332 0 0 1 .032.109.336.336 0 0 1 .005.052z"/></symbol><symbol id="Y"><path d="M.081.015A.017.017 0 0 0 .078.008.022.022 0 0 0 .07.004.053.053 0 0 0 .057 0a.162.162 0 0 0-.051.003.013.013 0 0 0-.005.004v.007l.13.652.002.007A.018.018 0 0 0 .141.68a.061.061 0 0 0 .013.003.18.18 0 0 0 .04 0C.199.682.203.681.205.68.208.678.21.676.211.674V.667L.081.015z"/></symbol><use xlink:href="#L" transform="matrix(8.74602 0 0 -8.74602 2.957 88.646)"/><use xlink:href="#M" transform="matrix(8.74602 0 0 -8.74602 5.063 88.646)"/><use xlink:href="#N" transform="matrix(8.74602 0 0 -8.74602 9.254 90.174)"/><use xlink:href="#O" transform="matrix(8.74602 0 0 -8.74602 14.26 88.701)"/><use xlink:href="#P" transform="matrix(8.74602 0 0 -8.74602 18.76 88.693)"/><use xlink:href="#D" transform="matrix(8.74602 0 0 -8.74602 21.19 88.62)"/><use xlink:href="#T" transform="matrix(8.74602 0 0 -8.74602 23.722 88.646)"/><use xlink:href="#U" transform="matrix(8.74602 0 0 -8.74602 27.422 88.701)"/><use xlink:href="#V" transform="matrix(8.74602 0 0 -8.74602 31.843 88.646)"/><use xlink:href="#W" transform="matrix(8.74602 0 0 -8.74602 34.817 88.646)"/><use xlink:href="#U" transform="matrix(8.74602 0 0 -8.74602 36.894 88.701)"/><use xlink:href="#X" transform="matrix(8.74602 0 0 -8.74602 41.31 88.701)"/><use xlink:href="#Y" transform="matrix(8.74602 0 0 -8.74602 45.81 88.646)"/><use xlink:href="#R" transform="matrix(8.74602 0 0 -8.74602 47.87 88.701)"/><use xlink:href="#Q" transform="matrix(8.74602 0 0 -8.74602 51.77 88.701)"/><symbol id="Z"><path d="M.439.315A.412.412 0 0 0 .411.17.317.317 0 0 0 .376.104a.249.249 0 0 0-.117-.09A.24.24 0 0 0 .177 0a.256.256 0 0 0-.08.011.131.131 0 0 0-.086.085A.227.227 0 0 0 0 .168a.442.442 0 0 0 .027.146C.037.337.05.358.063.38a.235.235 0 0 0 .199.104.242.242 0 0 0 .08-.012.128.128 0 0 0 .087-.085.225.225 0 0 0 .01-.07M.354.31c0 .016-.002.03-.005.043A.075.075 0 0 1 .3.408a.13.13 0 0 1-.047.008A.128.128 0 0 1 .2.405.145.145 0 0 1 .158.376.19.19 0 0 1 .125.335.292.292 0 0 1 .089.228.363.363 0 0 1 .084.172c0-.016.002-.03.006-.044A.085.085 0 0 1 .107.095a.08.08 0 0 1 .031-.02.13.13 0 0 1 .047-.008.132.132 0 0 1 .095.039.251.251 0 0 1 .056.093.33.33 0 0 1 .018.112z"/></symbol><use xlink:href="#L" transform="matrix(8.74602 0 0 -8.74602 3.189 42.35)"/><use xlink:href="#M" transform="matrix(8.74602 0 0 -8.74602 5.294 42.35)"/><use xlink:href="#P" transform="matrix(8.74602 0 0 -8.74602 9.913 42.397)"/><use xlink:href="#R" transform="matrix(8.74602 0 0 -8.74602 12.576 42.405)"/><use xlink:href="#V" transform="matrix(8.74602 0 0 -8.74602 16.708 42.35)"/><use xlink:href="#U" transform="matrix(8.74602 0 0 -8.74602 19.756 42.405)"/><use xlink:href="#S" transform="matrix(8.74602 0 0 -8.74602 24.23 42.405)"/><use xlink:href="#P" transform="matrix(8.74602 0 0 -8.74602 28.035 42.397)"/><use xlink:href="#W" transform="matrix(8.74602 0 0 -8.74602 30.737 42.35)"/><use xlink:href="#Z" transform="matrix(8.74602 0 0 -8.74602 32.8 42.405)"/><use xlink:href="#M" transform="matrix(8.74602 0 0 -8.74602 37.235 42.35)"/><use xlink:href="#D" transform="matrix(8.74602 0 0 -8.74602 41.458 42.324)"/><symbol id="aa"><path d="M.644.015A.013.013 0 0 0 .641.008.021.021 0 0 0 .633.004.053.053 0 0 0 .62 0a.162.162 0 0 0-.05.003.013.013 0 0 0-.006.004.01.01 0 0 0 0 .007l.054.272a.487.487 0 0 1 .006.052.09.09 0 0 1-.013.05C.604.4.59.407.57.407A.102.102 0 0 1 .52.392a.196.196 0 0 1-.05-.04.3.3 0 0 1-.068-.14L.363.014A.017.017 0 0 0 .36.008.021.021 0 0 0 .352.004.053.053 0 0 0 .339 0a.162.162 0 0 0-.05.003.013.013 0 0 0-.006.004.012.012 0 0 0-.001.007l.054.272C.338.297.34.306.34.315l.002.027c0 .02-.004.035-.012.047C.322.401.308.407.288.407a.1.1 0 0 1-.05-.015.196.196 0 0 1-.05-.04.3.3 0 0 1-.068-.14L.081.014A.017.017 0 0 0 .078.008.022.022 0 0 0 .07.004.053.053 0 0 0 .057 0a.162.162 0 0 0-.051.003.013.013 0 0 0-.005.004v.007l.088.44.002.006a.018.018 0 0 0 .007.005.131.131 0 0 0 .056 0C.157.465.158.463.159.461V.455L.143.371a.138.138 0 0 0 .024.035.24.24 0 0 0 .088.06.152.152 0 0 0 .105.002.087.087 0 0 0 .054-.055.166.166 0 0 0 .008-.042.223.223 0 0 0 .066.07c.015.01.032.018.05.025.017.007.035.01.053.01.022 0 .04-.003.055-.009A.093.093 0 0 0 .7.404.178.178 0 0 0 .707.357.288.288 0 0 0 .699.29L.644.015z"/></symbol><use xlink:href="#N" transform="matrix(8.74602 0 0 -8.74602 2.803 54.14)"/><use xlink:href="#V" transform="matrix(8.74602 0 0 -8.74602 7.602 52.612)"/><use xlink:href="#W" transform="matrix(8.74602 0 0 -8.74602 10.575 52.612)"/><use xlink:href="#aa" transform="matrix(8.74602 0 0 -8.74602 12.577 52.612)"/><use xlink:href="#W" transform="matrix(8.74602 0 0 -8.74602 19.503 52.612)"/><use xlink:href="#P" transform="matrix(8.74602 0 0 -8.74602 21.716 52.659)"/><use xlink:href="#W" transform="matrix(8.74602 0 0 -8.74602 24.417 52.612)"/><use xlink:href="#T" transform="matrix(8.74602 0 0 -8.74602 26.676 52.612)"/><use xlink:href="#R" transform="matrix(8.74602 0 0 -8.74602 30.358 52.667)"/><use xlink:href="#Q" transform="matrix(8.74602 0 0 -8.74602 34.256 52.667)"/><symbol id="ab"><path d="M.333.15A.144.144 0 0 0 .318.086.128.128 0 0 0 .28.038.174.174 0 0 0 .22.01.276.276 0 0 0 .097.004a.287.287 0 0 0-.069.02.078.078 0 0 0-.017.011.036.036 0 0 0-.008.016A.202.202 0 0 0 0 .106c0 .006.002.01.003.014s.003.006.005.007a.013.013 0 0 0 .007.002.494.494 0 0 1 .078-.033.164.164 0 0 1 .077-.003.071.071 0 0 1 .022.01.04.04 0 0 1 .015.016.05.05 0 0 1 .005.022c0 .01-.003.018-.01.025A.074.074 0 0 1 .18.185a.255.255 0 0 1-.034.014 1.036 1.036 0 0 0-.077.034.126.126 0 0 0-.058.064.142.142 0 0 0-.009.053c0 .02.005.04.013.057.008.018.02.033.035.045a.167.167 0 0 0 .055.029.251.251 0 0 0 .114.007.289.289 0 0 0 .062-.017.064.064 0 0 0 .015-.009.02.02 0 0 0 .007-.007.028.028 0 0 0 .003-.009L.307.434.308.415A.19.19 0 0 0 .305.38.012.012 0 0 0 .3.374.015.015 0 0 0 .293.372.034.034 0 0 0 .28.377a.2.2 0 0 1-.056.022.146.146 0 0 1-.07.002.055.055 0 0 1-.02-.01.042.042 0 0 1-.016-.033c0-.01.003-.019.01-.025A.085.085 0 0 1 .151.314.284.284 0 0 1 .186.3.643.643 0 0 0 .264.266.146.146 0 0 0 .3.24.121.121 0 0 0 .333.15z"/></symbol><symbol id="ac"><path d="M.416.02A.014.014 0 0 0 .413.01a.023.023 0 0 0-.01-.005.243.243 0 0 0-.097 0 .023.023 0 0 0-.01.006.014.014 0 0 0-.003.009v.248a.2.2 0 0 1-.004.05.092.092 0 0 1-.014.03.057.057 0 0 1-.023.02.067.067 0 0 1-.032.008.081.081 0 0 1-.047-.017.256.256 0 0 1-.05-.05V.02A.014.014 0 0 0 .12.012.023.023 0 0 0 .11.005a.248.248 0 0 0-.097 0 .023.023 0 0 0-.01.006A.014.014 0 0 0 0 .02v.642C0 .665.001.668.003.67a.02.02 0 0 0 .01.007.079.079 0 0 0 .019.004A.248.248 0 0 0 .11.677.02.02 0 0 0 .12.67.014.014 0 0 0 .123.662V.42c.021.02.043.036.065.046a.16.16 0 0 0 .068.016.17.17 0 0 0 .075-.015.128.128 0 0 0 .05-.04.162.162 0 0 0 .027-.06.348.348 0 0 0 .008-.081V.02z"/></symbol><symbol id="ad"><path d="M.398.026a.013.013 0 0 0-.005-.01A.032.032 0 0 0 .377.01a.178.178 0 0 0-.03-.002.19.19 0 0 0-.033.002A.027.027 0 0 0 .3.016a.015.015 0 0 0-.004.01v.035A.197.197 0 0 0 .235.016.21.21 0 0 0 .095.01a.124.124 0 0 0-.083.07A.15.15 0 0 0 0 .143a.121.121 0 0 0 .06.112.22.22 0 0 0 .073.027C.163.287.196.29.235.29h.042v.026a.129.129 0 0 1-.004.036.055.055 0 0 1-.04.041A.205.205 0 0 1 .14.391a.32.32 0 0 1-.073-.03.044.044 0 0 0-.02-.007.016.016 0 0 0-.01.003.029.029 0 0 0-.007.01.132.132 0 0 0-.003.06.035.035 0 0 0 .01.016A.262.262 0 0 0 .1.475.35.35 0 0 0 .293.48a.144.144 0 0 0 .06-.03.118.118 0 0 0 .034-.054.25.25 0 0 0 .01-.078V.026m-.12.187H.23A.252.252 0 0 1 .18.208.097.097 0 0 1 .146.195a.056.056 0 0 1-.02-.021A.065.065 0 0 1 .12.146C.12.127.126.113.137.103A.07.07 0 0 1 .186.087C.203.087.219.09.233.1.248.11.263.122.277.14v.074z"/></symbol><symbol id="ae"><path d="M.28.415A.345.345 0 0 0 .276.368C.275.364.273.361.27.36A.012.012 0 0 0 .263.357a.03.03 0 0 0-.01.001.146.146 0 0 1-.04.01.052.052 0 0 1-.02-.005A.084.084 0 0 1 .17.351.176.176 0 0 1 .148.327.416.416 0 0 1 .123.291V.02A.014.014 0 0 0 .12.01.023.023 0 0 0 .11.006a.248.248 0 0 0-.097 0 .023.023 0 0 0-.01.006A.014.014 0 0 0 0 .02v.435c0 .003 0 .006.002.008a.017.017 0 0 0 .01.007l.015.003a.184.184 0 0 0 .052 0A.051.051 0 0 0 .094.47.017.017 0 0 0 .103.463.014.014 0 0 0 .105.455V.401a.33.33 0 0 0 .061.065c.01.006.018.01.027.013a.1.1 0 0 0 .041.003L.25.479A.068.068 0 0 0 .27.471.012.012 0 0 0 .275.466.032.032 0 0 0 .278.458L.279.442V.415z"/></symbol><symbol id="af"><path d="M.428.258C.428.243.424.232.418.225A.035.035 0 0 0 .39.215H.125A.19.19 0 0 1 .131.163.103.103 0 0 1 .152.125.095.095 0 0 1 .19.101.161.161 0 0 1 .244.093a.323.323 0 0 1 .129.025.053.053 0 0 0 .019.005L.399.12C.4.12.403.118.404.115A.167.167 0 0 0 .407.064L.405.05A.035.035 0 0 0 .402.04.033.033 0 0 0 .397.036.055.055 0 0 0 .38.025a.297.297 0 0 0-.087-.02.395.395 0 0 0-.162.01.181.181 0 0 0-.073.044.187.187 0 0 0-.044.075A.359.359 0 0 0 0 .241c0 .038.005.073.015.104.01.031.025.058.044.08.02.021.043.038.07.05A.243.243 0 0 0 .222.49.242.242 0 0 0 .315.475.167.167 0 0 0 .416.363.295.295 0 0 0 .428.278v-.02m-.12.035a.124.124 0 0 1-.02.082C.273.395.25.405.219.405a.09.09 0 0 1-.04-.01.085.085 0 0 1-.03-.023.111.111 0 0 1-.017-.036.18.18 0 0 1-.007-.043h.184z"/></symbol><symbol id="ag"><path d="M.438.028c0-.004 0-.007-.002-.01A.019.019 0 0 0 .427.014.057.057 0 0 0 .411.009a.253.253 0 0 0-.066.004.023.023 0 0 0-.009.006.017.017 0 0 0-.002.009v.048A.278.278 0 0 0 .264.02.167.167 0 0 0 .181 0a.173.173 0 0 0-.085.019.166.166 0 0 0-.056.052.229.229 0 0 0-.031.076.424.424 0 0 0 .002.197.24.24 0 0 0 .037.08.161.161 0 0 0 .06.05A.183.183 0 0 0 .19.49.144.144 0 0 0 .257.476.23.23 0 0 0 .316.433v.235c0 .004 0 .007.002.01a.02.02 0 0 0 .01.006.079.079 0 0 0 .02.004.248.248 0 0 0 .077-.004.02.02 0 0 0 .01-.007.014.014 0 0 0 .003-.009v-.64m-.122.29a.266.266 0 0 1-.05.052.084.084 0 0 1-.051.017.07.07 0 0 1-.042-.012.088.088 0 0 1-.027-.032A.183.183 0 0 1 .13.298a.317.317 0 0 1 0-.104.176.176 0 0 1 .014-.046A.09.09 0 0 1 .17.116.069.069 0 0 1 .212.104c.009 0 .017.001.025.003A.095.095 0 0 1 .26.12.164.164 0 0 1 .287.14c.009.01.019.02.029.033V.32z"/></symbol><use xlink:href="#ab" transform="matrix(9.7178 0 0 -9.7178 168.954 8.15)" fill="#548235"/><use xlink:href="#ac" transform="matrix(9.7178 0 0 -9.7178 173.092 8.068)" fill="#548235"/><use xlink:href="#ad" transform="matrix(9.7178 0 0 -9.7178 178.05 8.15)" fill="#548235"/><use xlink:href="#ae" transform="matrix(9.7178 0 0 -9.7178 183.111 8.068)" fill="#548235"/><use xlink:href="#af" transform="matrix(9.7178 0 0 -9.7178 186.217 8.15)" fill="#548235"/><use xlink:href="#ag" transform="matrix(9.7178 0 0 -9.7178 191.14 8.15)" fill="#548235"/><path d="M222.693 64.773c0-6.108 6.365-11.06 14.217-11.06s14.217 4.952 14.217 11.06c0 6.109-6.365 11.06-14.217 11.06s-14.217-4.951-14.217-11.06z" fill="#f6deb3" fill-rule="evenodd"/><path d="M166.947 31.295c0-6.108 6.365-11.06 14.217-11.06s14.217 4.952 14.217 11.06c0 6.109-6.365 11.06-14.217 11.06s-14.217-4.951-14.217-11.06z" fill="#cfeac6" fill-rule="evenodd"/><path d="M171.749 18.684c0-.702.57-1.272 1.271-1.272h15.966c.702 0 1.271.57 1.271 1.272v5.085c0 .703-.569 1.272-1.271 1.272H173.02c-.702 0-1.271-.57-1.271-1.272z" fill="#ed7d31" fill-rule="evenodd"/><path stroke-width=".508" stroke-miterlimit="8" fill="none" stroke="#ed7d31" d="M171.749 18.684c0-.702.57-1.272 1.271-1.272h15.966c.702 0 1.271.57 1.271 1.272v5.085c0 .703-.569 1.272-1.271 1.272H173.02c-.702 0-1.271-.57-1.271-1.272z"/><use xlink:href="#r" transform="matrix(4.8589 0 0 -4.8589 176.474 22.747)" fill="#fff"/><use xlink:href="#s" transform="matrix(4.8589 0 0 -4.8589 179.667 22.747)" fill="#fff"/><use xlink:href="#t" transform="matrix(4.8589 0 0 -4.8589 182.889 22.733)" fill="#fff"/><path d="M195.078 43.314c0-6.108 6.365-11.06 14.217-11.06s14.217 4.952 14.217 11.06c0 6.109-6.365 11.06-14.217 11.06s-14.217-4.951-14.217-11.06z" fill="#cfeac6" fill-opacity=".851" fill-rule="evenodd"/><path d="M200.599 30.136c0-.702.57-1.272 1.271-1.272h15.966c.702 0 1.271.57 1.271 1.272v5.085c0 .703-.569 1.272-1.271 1.272H201.87c-.702 0-1.271-.57-1.271-1.272z" fill="#4472c4" fill-rule="evenodd"/><use xlink:href="#c" transform="matrix(4.8589 0 0 -4.8589 207.036 34.216)" fill="#fff"/><use xlink:href="#d" transform="matrix(4.8589 0 0 -4.8589 210.46 34.176)" fill="#fff"/><use xlink:href="#n" transform="matrix(7.77424 0 0 -7.77424 173.457 31.318)"/><use xlink:href="#o" transform="matrix(7.77424 0 0 -7.77424 177.526 31.269)"/><use xlink:href="#l" transform="matrix(7.77424 0 0 -7.77424 179.055 31.318)"/><use xlink:href="#p" transform="matrix(7.77424 0 0 -7.77424 182.75 31.318)"/><use xlink:href="#q" transform="matrix(7.77424 0 0 -7.77424 186.274 31.269)"/><use xlink:href="#e" transform="matrix(7.77424 0 0 -7.77424 175.488 38.665)"/><use xlink:href="#f" transform="matrix(7.77424 0 0 -7.77424 179.534 38.665)"/><use xlink:href="#g" transform="matrix(7.77424 0 0 -7.77424 183.525 39.978)"/><use xlink:href="#n" transform="matrix(7.77424 0 0 -7.77424 202.66 42.863)"/><use xlink:href="#o" transform="matrix(7.77424 0 0 -7.77424 206.73 42.814)"/><use xlink:href="#l" transform="matrix(7.77424 0 0 -7.77424 208.258 42.863)"/><use xlink:href="#p" transform="matrix(7.77424 0 0 -7.77424 211.954 42.863)"/><use xlink:href="#q" transform="matrix(7.77424 0 0 -7.77424 215.477 42.814)"/><use xlink:href="#f" transform="matrix(7.77424 0 0 -7.77424 203.51 50.21)"/><use xlink:href="#h" transform="matrix(7.77424 0 0 -7.77424 207.393 50.16)"/><use xlink:href="#i" transform="matrix(7.77424 0 0 -7.77424 211.06 50.21)"/><use xlink:href="#j" transform="matrix(7.77424 0 0 -7.77424 215.175 50.16)"/><path d="M227.973 50.873c0-.702.57-1.272 1.272-1.272h15.966c.702 0 1.271.57 1.271 1.272v5.086c0 .702-.57 1.271-1.271 1.271h-15.966c-.702 0-1.272-.57-1.272-1.271z" fill="#ed7d31" fill-rule="evenodd"/><path stroke-width=".508" stroke-miterlimit="8" fill="none" stroke="#ed7d31" d="M227.974 50.873c0-.702.569-1.272 1.27-1.272h15.967c.702 0 1.271.57 1.271 1.272v5.086c0 .702-.57 1.271-1.271 1.271h-15.966c-.702 0-1.272-.57-1.272-1.271z"/><use xlink:href="#r" transform="matrix(4.8589 0 0 -4.8589 232.7 54.933)" fill="#fff"/><use xlink:href="#s" transform="matrix(4.8589 0 0 -4.8589 235.892 54.933)" fill="#fff"/><use xlink:href="#t" transform="matrix(4.8589 0 0 -4.8589 239.113 54.919)" fill="#fff"/><path d="M242.94 40.084c0-7.878 9.005-14.264 20.112-14.264 11.108 0 20.112 6.386 20.112 14.264 0 7.878-9.004 14.265-20.112 14.265-11.107 0-20.112-6.387-20.112-14.265z" fill="#f6deb3" fill-opacity=".851" fill-rule="evenodd"/><path d="M252.705 24.94c0-.703.569-1.272 1.271-1.272h15.966c.702 0 1.271.569 1.271 1.271v5.086c0 .702-.57 1.271-1.271 1.271h-15.966c-.702 0-1.271-.57-1.271-1.271z" fill="#4472c4" fill-rule="evenodd"/><use xlink:href="#c" transform="matrix(4.8589 0 0 -4.8589 259.142 28.968)" fill="#fff"/><use xlink:href="#d" transform="matrix(4.8589 0 0 -4.8589 262.567 28.928)" fill="#fff"/><use xlink:href="#e" transform="matrix(7.77424 0 0 -7.77424 257.775 37.149)"/><use xlink:href="#f" transform="matrix(7.77424 0 0 -7.77424 261.82 37.149)"/><use xlink:href="#g" transform="matrix(7.77424 0 0 -7.77424 265.812 38.462)"/><use xlink:href="#f" transform="matrix(7.77424 0 0 -7.77424 256.593 44.495)"/><use xlink:href="#h" transform="matrix(7.77424 0 0 -7.77424 260.477 44.446)"/><use xlink:href="#i" transform="matrix(7.77424 0 0 -7.77424 264.144 44.495)"/><use xlink:href="#j" transform="matrix(7.77424 0 0 -7.77424 268.258 44.446)"/><use xlink:href="#J" transform="matrix(7.77424 0 0 -7.77424 255.121 51.653)"/><use xlink:href="#l" transform="matrix(7.77424 0 0 -7.77424 259.616 51.726)"/><use xlink:href="#h" transform="matrix(7.77424 0 0 -7.77424 262.973 51.676)"/><use xlink:href="#m" transform="matrix(7.77424 0 0 -7.77424 266.872 51.676)"/><use xlink:href="#e" transform="matrix(7.77424 0 0 -7.77424 268.49 51.726)"/><use xlink:href="#I" transform="matrix(7.77424 0 0 -7.77424 230.055 63.962)"/><use xlink:href="#F" transform="matrix(7.77424 0 0 -7.77424 233.122 63.92)"/><use xlink:href="#i" transform="matrix(7.77424 0 0 -7.77424 236.96 63.97)"/><use xlink:href="#G" transform="matrix(7.77424 0 0 -7.77424 240.575 65.28)"/><use xlink:href="#k" transform="matrix(7.77424 0 0 -7.77424 230.974 71.317)"/><use xlink:href="#l" transform="matrix(7.77424 0 0 -7.77424 234.052 71.317)"/><use xlink:href="#m" transform="matrix(7.77424 0 0 -7.77424 237.913 71.267)"/><use xlink:href="#e" transform="matrix(7.77424 0 0 -7.77424 239.534 71.317)"/><symbol id="ah"><path d="M.132.02A.014.014 0 0 0 .13.01.023.023 0 0 0 .12.006a.248.248 0 0 0-.097 0 .023.023 0 0 0-.01.006A.014.014 0 0 0 .01.02v.434C.01.457.01.46.012.462a.02.02 0 0 0 .01.007.079.079 0 0 0 .019.004A.248.248 0 0 0 .119.47.02.02 0 0 0 .13.462.012.012 0 0 0 .132.454V.02m.01.583C.142.578.137.56.126.55.116.541.098.537.07.537.043.537.024.542.014.551.004.56 0 .576 0 .6c0 .024.005.04.015.05.01.01.029.015.056.015C.1.666.117.661.127.652c.01-.01.015-.026.015-.05z"/></symbol><symbol id="ai"><path d="M.308.07A.145.145 0 0 0 .305.035.036.036 0 0 0 .298.02.044.044 0 0 0 .285.012.171.171 0 0 0 .24.002a.243.243 0 0 0-.09.007.107.107 0 0 0-.045.029.121.121 0 0 0-.025.048.256.256 0 0 0-.009.07v.223H.02C.013.379.009.383.005.39A.11.11 0 0 0 0 .43l.001.024a.06.06 0 0 0 .004.015.019.019 0 0 0 .006.008A.016.016 0 0 0 .02.48H.07v.097c0 .003.001.006.003.008a.02.02 0 0 0 .01.007.256.256 0 0 0 .098 0A.02.02 0 0 0 .19.584.014.014 0 0 0 .194.576V.479h.095C.292.479.295.478.297.476A.017.017 0 0 0 .303.468a.165.165 0 0 0 0-.078C.3.383.295.38.29.38H.194V.174c0-.023.004-.041.011-.053.008-.012.02-.018.04-.018a.096.096 0 0 1 .031.005 1.366 1.366 0 0 0 .018.006C.296.114.298.114.3.112.302.112.303.11.304.105A.141.141 0 0 0 .308.07z"/></symbol><symbol id="aj"><path d="M.416.02A.014.014 0 0 0 .413.01a.023.023 0 0 0-.01-.005.243.243 0 0 0-.097 0 .023.023 0 0 0-.01.006.014.014 0 0 0-.003.009v.248a.2.2 0 0 1-.004.05.092.092 0 0 1-.014.03.057.057 0 0 1-.023.02.067.067 0 0 1-.032.008.081.081 0 0 1-.047-.017.256.256 0 0 1-.05-.05V.02A.014.014 0 0 0 .12.012.023.023 0 0 0 .11.005a.248.248 0 0 0-.097 0 .023.023 0 0 0-.01.006A.014.014 0 0 0 0 .02v.435c0 .003 0 .006.002.008a.017.017 0 0 0 .01.007l.015.003a.184.184 0 0 0 .052 0A.051.051 0 0 0 .094.47.017.017 0 0 0 .103.463.014.014 0 0 0 .105.455v-.05a.278.278 0 0 0 .073.058c.025.013.051.02.078.02A.17.17 0 0 0 .331.468a.128.128 0 0 0 .05-.04A.157.157 0 0 0 .407.37.343.343 0 0 0 .416.289v-.27z"/></symbol><symbol id="ak"><path d="M.356.097A.2.2 0 0 0 .35.05.035.035 0 0 0 .343.042a.126.126 0 0 0-.02-.014A.213.213 0 0 0 .25.004a.24.24 0 0 0-.133.012.169.169 0 0 0-.065.046.208.208 0 0 0-.04.074.35.35 0 0 0-.013.1C0 .28.005.319.016.35a.219.219 0 0 0 .046.079c.02.02.043.036.07.046a.247.247 0 0 0 .16.003A.176.176 0 0 0 .34.452a.039.039 0 0 0 .008-.01A.022.022 0 0 0 .35.433.18.18 0 0 0 .35.358C.346.35.342.347.336.347A.03.03 0 0 0 .32.354a.484.484 0 0 1-.022.015.164.164 0 0 1-.03.015.116.116 0 0 1-.042.007A.083.083 0 0 1 .15.354.19.19 0 0 1 .126.246C.126.222.128.2.132.184A.135.135 0 0 1 .151.139.084.084 0 0 1 .182.11.104.104 0 0 1 .226.103C.243.103.257.105.27.11c.012.005.023.01.032.017l.023.017C.33.149.336.15.34.15c.003 0 .006 0 .008-.002S.35.144.352.139A.288.288 0 0 0 .356.097z"/></symbol><symbol id="al"><path d="M.452.456V.45L.45.442A.13.13 0 0 0 .445.42L.315.025A.038.038 0 0 0 .307.013.027.027 0 0 0 .294.005a.734.734 0 0 0-.136 0 .03.03 0 0 0-.014.008.045.045 0 0 0-.006.013L.007.42A.397.397 0 0 0 0 .45v.006c0 .003 0 .006.002.008a.02.02 0 0 0 .01.006l.019.004A.39.39 0 0 0 .112.47C.117.468.121.466.122.463a.034.034 0 0 0 .005-.01l.1-.32.002-.011.003.012.098.32a.027.027 0 0 0 .004.01.02.02 0 0 0 .01.006l.019.003A.253.253 0 0 0 .44.47.017.017 0 0 0 .45.464.014.014 0 0 0 .451.456z"/></symbol><use xlink:href="#ag" transform="matrix(9.7178 0 0 -9.7178 62.595 8.965)" fill="#4473c4"/><use xlink:href="#ah" transform="matrix(9.7178 0 0 -9.7178 67.97 8.885)" fill="#4473c4"/><use xlink:href="#ab" transform="matrix(9.7178 0 0 -9.7178 70.175 8.965)" fill="#4473c4"/><use xlink:href="#ai" transform="matrix(9.7178 0 0 -9.7178 73.713 8.951)" fill="#4473c4"/><use xlink:href="#ah" transform="matrix(9.7178 0 0 -9.7178 77.45 8.885)" fill="#4473c4"/><use xlink:href="#aj" transform="matrix(9.7178 0 0 -9.7178 79.906 8.885)" fill="#4473c4"/><use xlink:href="#ak" transform="matrix(9.7178 0 0 -9.7178 84.873 8.96)" fill="#4473c4"/><use xlink:href="#ai" transform="matrix(9.7178 0 0 -9.7178 88.707 8.951)" fill="#4473c4"/><use xlink:href="#ah" transform="matrix(9.7178 0 0 -9.7178 92.444 8.885)" fill="#4473c4"/><use xlink:href="#al" transform="matrix(9.7178 0 0 -9.7178 94.407 8.885)" fill="#4473c4"/><use xlink:href="#af" transform="matrix(9.7178 0 0 -9.7178 99.177 8.965)" fill="#4473c4"/><use xlink:href="#ag" transform="matrix(9.7178 0 0 -9.7178 257.405 9.199)" fill="#bf9000"/><use xlink:href="#ah" transform="matrix(9.7178 0 0 -9.7178 262.78 9.118)" fill="#bf9000"/><use xlink:href="#ab" transform="matrix(9.7178 0 0 -9.7178 264.985 9.199)" fill="#bf9000"/><use xlink:href="#ai" transform="matrix(9.7178 0 0 -9.7178 268.523 9.184)" fill="#bf9000"/><use xlink:href="#ah" transform="matrix(9.7178 0 0 -9.7178 272.26 9.118)" fill="#bf9000"/><use xlink:href="#aj" transform="matrix(9.7178 0 0 -9.7178 274.716 9.118)" fill="#bf9000"/><use xlink:href="#ak" transform="matrix(9.7178 0 0 -9.7178 279.683 9.194)" fill="#bf9000"/><use xlink:href="#ai" transform="matrix(9.7178 0 0 -9.7178 283.517 9.184)" fill="#bf9000"/><use xlink:href="#ah" transform="matrix(9.7178 0 0 -9.7178 287.254 9.118)" fill="#bf9000"/><use xlink:href="#al" transform="matrix(9.7178 0 0 -9.7178 289.217 9.118)" fill="#bf9000"/><use xlink:href="#af" transform="matrix(9.7178 0 0 -9.7178 293.987 9.199)" fill="#bf9000"/><symbol id="am"><path d="M.478.038A.037.037 0 0 0 .466.01.03.03 0 0 0 .455.003.043.043 0 0 0 .442.001H.415a.058.058 0 0 0-.04.012.118.118 0 0 0-.018.02.362.362 0 0 0-.018.031l-.2.36a2.954 2.954 0 0 0-.06.118H.078A4.974 4.974 0 0 0 .08.397V.016L.078.009A.014.014 0 0 0 .07.004.1.1 0 0 0 .04 0a.109.109 0 0 0-.032.004.014.014 0 0 0-.006.005A.014.014 0 0 0 0 .016v.583C0 .612.004.62.01.626a.038.038 0 0 0 .024.009h.04c.01 0 .017-.001.024-.003A.057.057 0 0 0 .13.608.212.212 0 0 0 .144.583L.298.306a4.18 4.18 0 0 0 .1-.189H.4l-.001.08v.424c0 .002 0 .004.002.006a.014.014 0 0 0 .006.005.039.039 0 0 0 .012.003.167.167 0 0 0 .039 0c.005 0 .01-.002.012-.003A.014.014 0 0 0 .476.627.011.011 0 0 0 .478.621V.038z"/></symbol><symbol id="an"><path d="M.404.26C.404.248.401.238.394.233A.032.032 0 0 0 .374.225H.085C.085.201.087.18.092.16A.127.127 0 0 1 .117.11.11.11 0 0 1 .16.077.176.176 0 0 1 .228.065a.286.286 0 0 1 .127.028A.048.048 0 0 0 .373.1.01.01 0 0 0 .378.097.01.01 0 0 0 .383.092.091.091 0 0 0 .384.048.015.015 0 0 0 .38.042.023.023 0 0 0 .377.036a.078.078 0 0 0-.016-.01A.437.437 0 0 0 .22 0a.274.274 0 0 0-.094.016.176.176 0 0 0-.11.12A.348.348 0 0 0 0 .239c0 .038.005.072.015.102.01.03.023.056.042.076.018.022.04.038.067.049A.216.216 0 0 0 .21.483.21.21 0 0 0 .299.466a.165.165 0 0 0 .094-.11.28.28 0 0 0 .011-.081V.26m-.08.024a.147.147 0 0 1-.03.1C.276.408.247.42.209.42a.113.113 0 0 1-.09-.041.136.136 0 0 1-.024-.044.179.179 0 0 1-.009-.05h.238z"/></symbol><symbol id="ao"><path d="M.416.61A.049.049 0 0 0 .411.585C.408.58.404.578.4.578H.336A.099.099 0 0 0 .36.538.174.174 0 0 0 .355.428.136.136 0 0 0 .32.377a.156.156 0 0 0-.054-.03.212.212 0 0 0-.12-.004.11.11 0 0 0-.038.018.06.06 0 0 1-.02-.046c0-.011.006-.02.016-.028A.078.078 0 0 1 .146.274L.261.27a.23.23 0 0 0 .06-.01A.143.143 0 0 0 .37.237.103.103 0 0 0 .41.15.13.13 0 0 0 .36.045.186.186 0 0 0 .293.012.384.384 0 0 0 .106.01a.193.193 0 0 0-.06.025A.095.095 0 0 0 0 .118a.125.125 0 0 0 .016.06.15.15 0 0 0 .02.026.264.264 0 0 0 .027.025.076.076 0 0 0-.047.07c0 .02.005.038.013.054s.018.03.03.042a.145.145 0 0 0-.024.04.154.154 0 0 0-.009.056.17.17 0 0 0 .013.067.143.143 0 0 0 .089.082.205.205 0 0 0 .069.01.263.263 0 0 0 .07-.007h.132C.405.643.41.64.412.634A.052.052 0 0 0 .416.61M.29.494c0 .03-.008.053-.025.07C.25.581.225.589.195.589a.1.1 0 0 1-.04-.007.083.083 0 0 1-.047-.054.126.126 0 0 1-.005-.037C.103.462.111.44.127.423a.094.094 0 0 1 .07-.025c.016 0 .03.002.041.007a.08.08 0 0 1 .046.053.115.115 0 0 1 .006.036M.33.146a.049.049 0 0 1-.023.043.115.115 0 0 1-.062.017L.13.21A.21.21 0 0 1 .089.166a.08.08 0 0 1-.008-.02.102.102 0 0 1-.002-.02C.08.105.09.089.111.078a.2.2 0 0 1 .09-.016c.025 0 .045.002.061.007.017.004.03.01.04.018.01.008.017.017.022.027.004.01.007.02.007.032z"/></symbol><symbol id="ap"><path d="M.36.021C.36.017.36.014.358.012a.027.027 0 0 0-.01-.004.102.102 0 0 0-.02-.002c-.01 0-.016 0-.021.002a.024.024 0 0 0-.011.004C.293.014.292.017.292.021v.044A.216.216 0 0 0 .227.017.169.169 0 0 0 .152 0 .202.202 0 0 0 .09.01.121.121 0 0 0 .01.077.142.142 0 0 0 0 .133C0 .159.005.18.015.198.025.216.04.232.06.244A.21.21 0 0 0 .128.27.42.42 0 0 0 .22.28h.06v.034a.17.17 0 0 1-.005.045.074.074 0 0 1-.048.052.183.183 0 0 1-.1 0A.264.264 0 0 1 .054.378.04.04 0 0 0 .038.372c-.003 0-.005 0-.007.002A.019.019 0 0 0 .025.38a.035.035 0 0 0-.003.01.096.096 0 0 0 0 .033.03.03 0 0 0 .01.013c.004.004.011.01.022.015a.295.295 0 0 0 .133.032.264.264 0 0 0 .081-.01A.12.12 0 0 0 .351.39a.25.25 0 0 0 .01-.073V.021m-.08.2H.21A.25.25 0 0 1 .155.217a.113.113 0 0 1-.04-.017A.068.068 0 0 1 .09.173.08.08 0 0 1 .083.138C.083.115.09.097.104.083a.087.087 0 0 1 .061-.02c.021 0 .04.005.059.016A.25.25 0 0 1 .28.13v.093z"/></symbol><symbol id="aq"><path d="M.287.053c0-.01 0-.017-.002-.023A.025.025 0 0 0 .28.018.038.038 0 0 0 .268.011a.186.186 0 0 0-.12-.002.098.098 0 0 0-.064.074.285.285 0 0 0-.006.066v.257H.016C.011.406.007.408.004.414A.055.055 0 0 0 0 .439l.001.016a.047.047 0 0 0 .003.01L.01.47a.015.015 0 0 0 .008.002h.06v.104L.08.583a.014.014 0 0 0 .006.005.04.04 0 0 0 .013.004A.162.162 0 0 0 .15.588.014.014 0 0 0 .156.583.011.011 0 0 0 .158.577V.473h.113L.278.47.283.465a.027.027 0 0 0 .003-.01L.287.439A.055.055 0 0 0 .283.414C.28.408.276.406.27.406H.158V.16c0-.03.005-.054.013-.07C.181.077.197.07.22.07a.093.093 0 0 1 .035.007.34.34 0 0 1 .02.007C.279.083.28.082.28.08.282.081.283.08.284.077a.042.042 0 0 0 .002-.01L.287.053z"/></symbol><symbol id="ar"><path d="M.09.015C.09.013.09.01.088.008A.017.017 0 0 0 .082.004.045.045 0 0 0 .07 0a.167.167 0 0 0-.052.003.017.017 0 0 0-.007.004.015.015 0 0 0-.001.007v.44L.01.46a.014.014 0 0 0 .007.005.052.052 0 0 0 .012.003.162.162 0 0 0 .052-.003A.014.014 0 0 0 .088.46.011.011 0 0 0 .09.455v-.44M.1.603C.1.584.096.571.089.564.082.558.069.554.049.554.03.554.017.557.01.564.003.571 0 .584 0 .602c0 .019.004.032.01.039.008.006.021.01.04.01C.07.65.082.647.09.64.096.634.099.62.099.603z"/></symbol><symbol id="as"><path d="M.418.456V.447L.415.44.415.435.265.018a.024.024 0 0 0-.006-.01A.02.02 0 0 0 .25.004a.253.253 0 0 0-.081 0 .023.023 0 0 0-.01.006.024.024 0 0 0-.005.009l-.15.417c0 .004-.002.007-.003.01A.28.28 0 0 1 0 .452v.004C0 .458 0 .46.002.462a.012.012 0 0 0 .006.005.313.313 0 0 0 .067 0A.014.014 0 0 0 .082.46.031.031 0 0 0 .086.454L.21.092.212.086l.002.006.122.362.004.007a.018.018 0 0 0 .007.005.19.19 0 0 0 .064 0C.414.467.416.465.417.463A.01.01 0 0 0 .418.456z"/></symbol><symbol id="at"><path d="M0 0z"/></symbol><symbol id="au"><path d="M.311.141a.137.137 0 0 0-.013-.06.12.12 0 0 0-.035-.044.16.16 0 0 0-.055-.028.248.248 0 0 0-.114-.005.274.274 0 0 0-.067.02.09.09 0 0 0-.017.012.028.028 0 0 0-.008.013A.093.093 0 0 0 0 .073.105.105 0 0 0 .003.1a.01.01 0 0 0 .004.005.011.011 0 0 0 .007.002C.017.106.022.104.029.1A.525.525 0 0 1 .092.07.167.167 0 0 1 .177.07c.011.003.02.007.03.013a.057.057 0 0 1 .018.022C.229.112.23.123.23.134a.05.05 0 0 1-.01.032.088.088 0 0 1-.024.022.196.196 0 0 1-.035.018A10.87 10.87 0 0 1 .08.24a.163.163 0 0 0-.036.026.12.12 0 0 0-.025.036.124.124 0 0 0-.01.05c0 .018.004.034.01.05.007.016.017.03.03.041.014.012.03.022.05.03A.21.21 0 0 0 .207.48.241.241 0 0 0 .262.463.081.081 0 0 0 .277.454.022.022 0 0 0 .284.447.049.049 0 0 0 .288.431V.405a.027.027 0 0 0-.003-.01.013.013 0 0 0-.004-.006.01.01 0 0 0-.005-.001C.273.387.269.389.263.392A.211.211 0 0 1 .21.415a.139.139 0 0 1-.076 0A.067.067 0 0 1 .108.403a.057.057 0 0 1-.015-.02.065.065 0 0 1-.005-.025c0-.013.003-.024.01-.032A.095.095 0 0 1 .123.302.214.214 0 0 1 .159.285 3.48 3.48 0 0 0 .24.25.151.151 0 0 0 .276.225.11.11 0 0 0 .311.141z"/></symbol><symbol id="av"><path d="M.378.015c0-.002 0-.005-.002-.007A.017.017 0 0 0 .37.004.045.045 0 0 0 .358 0a.162.162 0 0 0-.052.003A.017.017 0 0 0 .3.008a.012.012 0 0 0-.002.007v.257a.253.253 0 0 1-.006.061.125.125 0 0 1-.017.04.074.074 0 0 1-.03.025.09.09 0 0 1-.04.009.104.104 0 0 1-.061-.022.328.328 0 0 1-.063-.063V.015L.079.008A.017.017 0 0 0 .072.004.045.045 0 0 0 .06 0a.167.167 0 0 0-.052.003A.017.017 0 0 0 0 .008.015.015 0 0 0 0 .015v.44L.001.46c.001.002.003.004.006.005A.027.027 0 0 0 .02.469.133.133 0 0 0 .065.466.011.011 0 0 0 .071.46.01.01 0 0 0 .073.455V.396c.024.028.05.048.073.061.025.013.05.02.075.02.03 0 .054-.005.074-.016a.13.13 0 0 0 .049-.04A.156.156 0 0 0 .37.364a.334.334 0 0 0 .008-.08V.015z"/></symbol><symbol id="aw"><path d="M.652.015C.652.013.652.01.65.008A.017.017 0 0 0 .644.004.045.045 0 0 0 .63 0 .162.162 0 0 0 .58.004a.017.017 0 0 0-.006.004.012.012 0 0 0-.002.007v.267a.244.244 0 0 1-.005.051.117.117 0 0 1-.016.04.073.073 0 0 1-.027.025.082.082 0 0 1-.04.009.093.093 0 0 1-.055-.022.393.393 0 0 1-.062-.063V.015c0-.002 0-.005-.002-.007A.017.017 0 0 0 .357.004.045.045 0 0 0 .345 0a.162.162 0 0 0-.052.003.017.017 0 0 0-.006.004.015.015 0 0 0-.001.007v.267A.223.223 0 0 1 .28.333a.124.124 0 0 1-.016.04.073.073 0 0 1-.066.034.093.093 0 0 1-.056-.022.367.367 0 0 1-.061-.063V.015L.079.008A.017.017 0 0 0 .072.004.045.045 0 0 0 .06 0a.167.167 0 0 0-.052.003A.017.017 0 0 0 0 .008.015.015 0 0 0 0 .015v.44L.001.46c.001.002.003.004.006.005A.027.027 0 0 0 .02.469.133.133 0 0 0 .065.466.011.011 0 0 0 .071.46.01.01 0 0 0 .073.455V.396a.283.283 0 0 0 .072.061c.023.013.047.02.07.02A.172.172 0 0 0 .265.47.128.128 0 0 0 .35.39a.475.475 0 0 0 .08.067.153.153 0 0 0 .141.004.125.125 0 0 0 .047-.04.154.154 0 0 0 .025-.058.306.306 0 0 0 .008-.07V.015z"/></symbol><use xlink:href="#am" transform="matrix(6.80246 0 0 -6.80246 260.167 105.782)" fill="#4473c4"/><use xlink:href="#an" transform="matrix(6.80246 0 0 -6.80246 264.278 105.825)" fill="#4473c4"/><use xlink:href="#ao" transform="matrix(6.80246 0 0 -6.80246 267.546 106.974)" fill="#4473c4"/><use xlink:href="#ap" transform="matrix(6.80246 0 0 -6.80246 270.77 105.825)" fill="#4473c4"/><use xlink:href="#aq" transform="matrix(6.80246 0 0 -6.80246 273.79 105.819)" fill="#4473c4"/><use xlink:href="#ar" transform="matrix(6.80246 0 0 -6.80246 276.428 105.782)" fill="#4473c4"/><use xlink:href="#as" transform="matrix(6.80246 0 0 -6.80246 277.677 105.782)" fill="#4473c4"/><use xlink:href="#an" transform="matrix(6.80246 0 0 -6.80246 280.906 105.825)" fill="#4473c4"/><use xlink:href="#at" transform="matrix(6.80246 0 0 -6.80246 283.998 105.762)" fill="#4473c4"/><use xlink:href="#au" transform="matrix(6.80246 0 0 -6.80246 285.783 105.825)" fill="#4473c4"/><use xlink:href="#an" transform="matrix(6.80246 0 0 -6.80246 288.495 105.825)" fill="#4473c4"/><use xlink:href="#av" transform="matrix(6.80246 0 0 -6.80246 292.095 105.782)" fill="#4473c4"/><use xlink:href="#aq" transform="matrix(6.80246 0 0 -6.80246 295.22 105.819)" fill="#4473c4"/><use xlink:href="#ar" transform="matrix(6.80246 0 0 -6.80246 297.857 105.782)" fill="#4473c4"/><use xlink:href="#aw" transform="matrix(6.80246 0 0 -6.80246 299.501 105.782)" fill="#4473c4"/><use xlink:href="#an" transform="matrix(6.80246 0 0 -6.80246 304.71 105.825)" fill="#4473c4"/><use xlink:href="#av" transform="matrix(6.80246 0 0 -6.80246 308.309 105.782)" fill="#4473c4"/><use xlink:href="#aq" transform="matrix(6.80246 0 0 -6.80246 311.433 105.819)" fill="#4473c4"/><path d="M247.97 103.444h8.067a.364.364 0 0 1 0 .729h-8.066a.364.364 0 0 1 0-.73zm7.58-1.093 2.916 1.457-2.915 1.458zM264.118 21.155l5.459-7.736a.364.364 0 1 0-.596-.42l-5.459 7.735a.364.364 0 1 0 .596.42zm6.072-6.709.49-3.222-2.872 1.541zM99.148 20.359l-6.592-7.45a.364.364 0 0 1 .545-.484l6.593 7.451a.364.364 0 1 1-.546.483zm-7.09-6.362-.84-3.15 3.024 1.218z"/><path d="M137.615 43.414c0-6.109 6.366-11.06 14.217-11.06 7.852 0 14.218 4.951 14.218 11.06 0 6.108-6.366 11.06-14.218 11.06-7.851 0-14.217-4.952-14.217-11.06z" fill="#cfeac6" fill-opacity=".851" fill-rule="evenodd"/><path d="M143.136 30.235c0-.702.57-1.271 1.272-1.271h15.965c.703 0 1.272.57 1.272 1.271v5.086c0 .702-.57 1.271-1.272 1.271h-15.965c-.702 0-1.272-.569-1.272-1.271z" fill="#4472c4" fill-rule="evenodd"/><use xlink:href="#c" transform="matrix(4.8589 0 0 -4.8589 149.574 34.333)" fill="#fff"/><use xlink:href="#d" transform="matrix(4.8589 0 0 -4.8589 152.998 34.292)" fill="#fff"/><use xlink:href="#n" transform="matrix(7.77424 0 0 -7.77424 144.193 43.446)"/><use xlink:href="#o" transform="matrix(7.77424 0 0 -7.77424 148.262 43.397)"/><use xlink:href="#l" transform="matrix(7.77424 0 0 -7.77424 149.79 43.446)"/><use xlink:href="#p" transform="matrix(7.77424 0 0 -7.77424 153.486 43.446)"/><use xlink:href="#q" transform="matrix(7.77424 0 0 -7.77424 157.01 43.397)"/><use xlink:href="#e" transform="matrix(7.77424 0 0 -7.77424 146.224 50.676)"/><use xlink:href="#f" transform="matrix(7.77424 0 0 -7.77424 150.27 50.676)"/><use xlink:href="#g" transform="matrix(7.77424 0 0 -7.77424 154.26 51.99)"/><path d="M182.892 16.195v-6.162a.364.364 0 1 0-.728 0v6.162a.364.364 0 0 0 .728 0zm1.094-5.676-1.458-2.915-1.458 2.915z"/><path d="M161.456 59.614c0-7.878 9.004-14.265 20.112-14.265 11.107 0 20.112 6.387 20.112 14.265 0 7.878-9.005 14.264-20.112 14.264-11.108 0-20.112-6.386-20.112-14.264z" fill="#d4eccc" fill-rule="evenodd"/><path d="M172.184 43.993c0-.702.57-1.271 1.272-1.271h15.965c.703 0 1.272.569 1.272 1.271v5.086c0 .702-.57 1.271-1.272 1.271h-15.965c-.702 0-1.272-.569-1.272-1.271z" fill="#ed7d31" fill-rule="evenodd"/><path stroke-width=".508" stroke-miterlimit="8" fill="none" stroke="#ed7d31" d="M172.184 43.993c0-.702.57-1.271 1.272-1.271h15.965c.703 0 1.272.569 1.272 1.271v5.086c0 .702-.57 1.271-1.272 1.271h-15.965c-.702 0-1.272-.569-1.272-1.271z"/><use xlink:href="#r" transform="matrix(4.8589 0 0 -4.8589 176.91 48.053)" fill="#fff"/><use xlink:href="#s" transform="matrix(4.8589 0 0 -4.8589 180.103 48.053)" fill="#fff"/><use xlink:href="#t" transform="matrix(4.8589 0 0 -4.8589 183.324 48.038)" fill="#fff"/><use xlink:href="#n" transform="matrix(7.77424 0 0 -7.77424 173.815 56.623)"/><use xlink:href="#o" transform="matrix(7.77424 0 0 -7.77424 177.885 56.574)"/><use xlink:href="#l" transform="matrix(7.77424 0 0 -7.77424 179.413 56.623)"/><use xlink:href="#p" transform="matrix(7.77424 0 0 -7.77424 183.11 56.623)"/><use xlink:href="#q" transform="matrix(7.77424 0 0 -7.77424 186.632 56.574)"/><use xlink:href="#e" transform="matrix(7.77424 0 0 -7.77424 175.846 63.853)"/><use xlink:href="#f" transform="matrix(7.77424 0 0 -7.77424 179.893 63.853)"/><use xlink:href="#g" transform="matrix(7.77424 0 0 -7.77424 183.883 65.167)"/><use xlink:href="#f" transform="matrix(7.77424 0 0 -7.77424 174.665 71.2)"/><use xlink:href="#h" transform="matrix(7.77424 0 0 -7.77424 178.548 71.15)"/><use xlink:href="#i" transform="matrix(7.77424 0 0 -7.77424 182.216 71.2)"/><use xlink:href="#j" transform="matrix(7.77424 0 0 -7.77424 186.334 71.15)"/></g></svg>